<svg width="24" height="30" viewBox="0 0 24 30" fill="none" xmlns="http://www.w3.org/2000/svg" xmlns:xlink="http://www.w3.org/1999/xlink">

<path d="M20.485,20.485L12,28.971L3.515,20.485C-1.172,15.799 -1.172,8.201 3.515,3.515C8.201,-1.172 15.799,-1.172 20.485,3.515C25.172,8.201 25.172,15.799 20.485,20.485ZM12,17.333C14.945,17.333 17.333,14.945 17.333,12C17.333,9.054 14.945,6.667 12,6.667C9.054,6.667 6.667,9.054 6.667,12C6.667,14.945 9.054,17.333 12,17.333ZM12,14.667C10.527,14.667 9.333,13.473 9.333,12C9.333,10.527 10.527,9.333 12,9.333C13.473,9.333 14.667,10.527 14.667,12C14.667,13.473 13.473,14.667 12,14.667Z" fill="#FFFFFF"/>

<path d="M20.485,21L12,29.485L3.515,21C-1.172,16.314 -1.172,8.716 3.515,4.029C8.201,-0.657 15.799,-0.657 20.485,4.029C25.172,8.716 25.172,16.314 20.485,21ZM12,17.848C14.945,17.848 17.333,15.46 17.333,12.515C17.333,9.569 14.945,7.181 12,7.181C9.054,7.181 6.667,9.569 6.667,12.515C6.667,15.46 9.054,17.848 12,17.848ZM12,15.181C10.527,15.181 9.333,13.987 9.333,12.515C9.333,11.042 10.527,9.848 12,9.848C13.473,9.848 14.667,11.042 14.667,12.515C14.667,13.987 13.473,15.181 12,15.181Z" fill="#FFFFFF"/>

</svg>
