<svg width="24" height="30" viewBox="0 0 24 30" fill="none" xmlns="http://www.w3.org/2000/svg" xmlns:xlink="http://www.w3.org/1999/xlink">
<path d="M20.485,20.485L12,28.971L3.515,20.485C-1.172,15.799 -1.172,8.201 3.515,3.515C8.201,-1.172 15.799,-1.172 20.485,3.515C25.172,8.201 25.172,15.799 20.485,20.485ZM12,17.333C14.945,17.333 17.333,14.945 17.333,12C17.333,9.054 14.945,6.667 12,6.667C9.054,6.667 6.667,9.054 6.667,12C6.667,14.945 9.054,17.333 12,17.333ZM12,14.667C10.527,14.667 9.333,13.473 9.333,12C9.333,10.527 10.527,9.333 12,9.333C13.473,9.333 14.667,10.527 14.667,12C14.667,13.473 13.473,14.667 12,14.667Z" fill="#FFFFFF"/>
</svg>
