<svg width="30" height="34" viewBox="0 0 30 34" fill="none" xmlns="http://www.w3.org/2000/svg" xmlns:xlink="http://www.w3.org/1999/xlink">
<path d="M23.111,14.873C23.111,20.851 18.682,25.412 13.556,25.412L13.556,29.412C21.193,29.412 27.111,22.746 27.111,14.873L23.111,14.873ZM13.556,25.412C8.429,25.412 4,20.851 4,14.873L0,14.873C0,22.746 5.918,29.412 13.556,29.412L13.556,25.412ZM4,14.873C4,8.895 8.429,4.333 13.556,4.333L13.556,0.333C5.918,0.333 0,7 0,14.873L4,14.873ZM13.556,4.333C18.682,4.333 23.111,8.895 23.111,14.873L27.111,14.873C27.111,7 21.193,0.333 13.556,0.333L13.556,4.333Z" fill="#7E7E7E"/>
<path d="M26.529,31.903C27.277,32.715 28.543,32.767 29.355,32.018C30.167,31.27 30.219,30.004 29.47,29.192L26.529,31.903ZM23.187,22.374C22.439,21.561 21.173,21.51 20.361,22.258C19.549,23.007 19.497,24.272 20.246,25.084L23.187,22.374ZM29.47,29.192L23.187,22.374L20.246,25.084L26.529,31.903L29.47,29.192Z" fill="#7E7E7E"/>
</svg>
