<svg width="48" height="48" viewBox="0 0 48 48" fill="none" xmlns="http://www.w3.org/2000/svg" xmlns:xlink="http://www.w3.org/1999/xlink">
<path d="M28.939,31.061C29.525,31.646 30.475,31.646 31.061,31.061C31.646,30.475 31.646,29.525 31.061,28.939L28.939,31.061ZM25.061,22.939C24.475,22.354 23.525,22.354 22.939,22.939C22.354,23.525 22.354,24.475 22.939,25.061L25.061,22.939ZM31.061,28.939L25.061,22.939L22.939,25.061L28.939,31.061L31.061,28.939Z" fill="#1B1B1B"/>
<path d="M25.061,25.061C25.646,24.475 25.646,23.525 25.061,22.939C24.475,22.354 23.525,22.354 22.939,22.939L25.061,25.061ZM16.939,28.939C16.354,29.525 16.354,30.475 16.939,31.061C17.525,31.646 18.475,31.646 19.061,31.061L16.939,28.939ZM22.939,22.939L16.939,28.939L19.061,31.061L25.061,25.061L22.939,22.939Z" fill="#1B1B1B"/>
<path d="M22.5,40C22.5,40.828 23.172,41.5 24,41.5C24.828,41.5 25.5,40.828 25.5,40L22.5,40ZM25.5,24C25.5,23.172 24.828,22.5 24,22.5C23.172,22.5 22.5,23.172 22.5,24L25.5,24ZM25.5,40L25.5,24L22.5,24L22.5,40L25.5,40Z" fill="#1B1B1B"/>
<path d="M16,39.5C16.828,39.5 17.5,38.828 17.5,38C17.5,37.172 16.828,36.5 16,36.5L16,39.5ZM4,30L2.5,30L4,30ZM12,22L12,23.5C12.435,23.5 12.848,23.311 13.133,22.983C13.418,22.655 13.546,22.219 13.485,21.789L12,22ZM11.98,21.859L13.465,21.648L13.465,21.647L11.98,21.859ZM24,8L24,6.5L24,6.5L24,8ZM36.02,21.859L34.535,21.647L34.535,21.648L36.02,21.859ZM36,22L34.515,21.789C34.454,22.219 34.582,22.655 34.867,22.983C35.152,23.311 35.565,23.5 36,23.5L36,22ZM32,36.5C31.172,36.5 30.5,37.172 30.5,38C30.5,38.828 31.172,39.5 32,39.5L32,36.5ZM16,36.5L12,36.5L12,39.5L16,39.5L16,36.5ZM12,36.5C8.41,36.5 5.5,33.59 5.5,30L2.5,30C2.5,35.247 6.753,39.5 12,39.5L12,36.5ZM5.5,30C5.5,26.41 8.41,23.5 12,23.5L12,20.5C6.753,20.5 2.5,24.753 2.5,30L5.5,30ZM13.485,21.789L13.465,21.648L10.495,22.07L10.515,22.211L13.485,21.789ZM13.465,21.647C13.029,18.593 13.939,15.5 15.96,13.169L13.694,11.204C11.103,14.191 9.936,18.156 10.495,22.071L13.465,21.647ZM15.96,13.169C17.982,10.839 20.915,9.5 24,9.5L24,6.5C20.045,6.5 16.285,8.216 13.694,11.204L15.96,13.169ZM24,9.5C27.085,9.5 30.018,10.839 32.04,13.169L34.306,11.204C31.715,8.216 27.955,6.5 24,6.5L24,9.5ZM32.04,13.169C34.061,15.5 34.971,18.593 34.535,21.647L37.505,22.071C38.064,18.156 36.897,14.191 34.306,11.204L32.04,13.169ZM34.535,21.648L34.515,21.789L37.485,22.211L37.505,22.07L34.535,21.648ZM36,23.5C39.59,23.5 42.5,26.41 42.5,30L45.5,30C45.5,24.753 41.247,20.5 36,20.5L36,23.5ZM42.5,30C42.5,33.59 39.59,36.5 36,36.5L36,39.5C41.247,39.5 45.5,35.247 45.5,30L42.5,30ZM36,36.5L32,36.5L32,39.5L36,39.5L36,36.5Z" fill="#1B1B1B"/>
</svg>
