<svg width="30" height="34" viewBox="0 0 30 34" fill="none" xmlns="http://www.w3.org/2000/svg" xmlns:xlink="http://www.w3.org/1999/xlink">
<path d="M22.988,14.873C22.988,20.81 18.487,25.413 13.183,25.413L13.183,29.413C20.92,29.413 26.988,22.788 26.988,14.873L22.988,14.873ZM13.183,25.413C7.88,25.413 3.378,20.81 3.378,14.873L-0.622,14.873C-0.622,22.788 5.447,29.413 13.183,29.413L13.183,25.413ZM3.378,14.873C3.378,8.937 7.88,4.334 13.183,4.334L13.183,0.334C5.447,0.334 -0.622,6.959 -0.622,14.873L3.378,14.873ZM13.183,4.334C18.487,4.334 22.988,8.937 22.988,14.873L26.988,14.873C26.988,6.959 20.92,0.334 13.183,0.334L13.183,4.334Z" fill="#7E7E7E"/>
<path d="M26.483,31.919C27.24,32.723 28.506,32.761 29.31,32.004C30.115,31.247 30.153,29.981 29.396,29.177L26.483,31.919ZM22.976,22.359C22.219,21.554 20.954,21.516 20.149,22.273C19.345,23.03 19.307,24.296 20.064,25.1L22.976,22.359ZM29.396,29.177L22.976,22.359L20.064,25.1L26.483,31.919L29.396,29.177Z" fill="#7E7E7E"/>
</svg>
