<svg width="30" height="34" viewBox="0 0 30 34" fill="none" xmlns="http://www.w3.org/2000/svg" xmlns:xlink="http://www.w3.org/1999/xlink">
<path d="M23.111,14.873C23.111,20.851 18.682,25.413 13.556,25.413L13.556,29.413C21.193,29.413 27.111,22.746 27.111,14.873L23.111,14.873ZM13.556,25.413C8.429,25.413 4,20.851 4,14.873L0,14.873C0,22.746 5.918,29.413 13.556,29.413L13.556,25.413ZM4,14.873C4,8.896 8.429,4.334 13.556,4.334L13.556,0.334C5.918,0.334 0,7.001 0,14.873L4,14.873ZM13.556,4.334C18.682,4.334 23.111,8.896 23.111,14.873L27.111,14.873C27.111,7.001 21.193,0.334 13.556,0.334L13.556,4.334Z" fill="#7E7E7E"/>
<path d="M26.529,31.902C27.278,32.714 28.543,32.766 29.355,32.018C30.168,31.269 30.219,30.004 29.471,29.191L26.529,31.902ZM23.188,22.373C22.439,21.561 21.174,21.509 20.361,22.258C19.549,23.006 19.498,24.272 20.246,25.084L23.188,22.373ZM29.471,29.191L23.188,22.373L20.246,25.084L26.529,31.902L29.471,29.191Z" fill="#7E7E7E"/>
</svg>
