<svg width="32" height="34" viewBox="0 0 32 34" fill="none" xmlns="http://www.w3.org/2000/svg" xmlns:xlink="http://www.w3.org/1999/xlink">
<path d="M24.111,14.873C24.111,20.851 19.682,25.413 14.556,25.413L14.556,29.413C22.193,29.413 28.111,22.746 28.111,14.873L24.111,14.873ZM14.556,25.413C9.429,25.413 5,20.851 5,14.873L1,14.873C1,22.746 6.918,29.413 14.556,29.413L14.556,25.413ZM5,14.873C5,8.896 9.429,4.334 14.556,4.334L14.556,0.334C6.918,0.334 1,7.001 1,14.873L5,14.873ZM14.556,4.334C19.682,4.334 24.111,8.896 24.111,14.873L28.111,14.873C28.111,7.001 22.193,0.334 14.556,0.334L14.556,4.334Z" fill="#7E7E7E"/>
<path d="M27.529,31.902C28.278,32.714 29.543,32.766 30.355,32.018C31.168,31.269 31.219,30.004 30.471,29.191L27.529,31.902ZM24.188,22.373C23.439,21.561 22.174,21.509 21.361,22.258C20.549,23.006 20.498,24.272 21.246,25.084L24.188,22.373ZM30.471,29.191L24.188,22.373L21.246,25.084L27.529,31.902L30.471,29.191Z" fill="#7E7E7E"/>
</svg>
