<svg width="30" height="34" viewBox="0 0 30 34" fill="none" xmlns="http://www.w3.org/2000/svg" xmlns:xlink="http://www.w3.org/1999/xlink">
<path d="M22.111,14.873C22.111,20.851 17.682,25.412 12.556,25.412L12.556,29.412C20.193,29.412 26.111,22.746 26.111,14.873L22.111,14.873ZM12.556,25.412C7.429,25.412 3,20.851 3,14.873L-1,14.873C-1,22.746 4.918,29.412 12.556,29.412L12.556,25.412ZM3,14.873C3,8.895 7.429,4.333 12.556,4.333L12.556,0.333C4.918,0.333 -1,7 -1,14.873L3,14.873ZM12.556,4.333C17.682,4.333 22.111,8.895 22.111,14.873L26.111,14.873C26.111,7 20.193,0.333 12.556,0.333L12.556,4.333Z" fill="#7E7E7E"/>
<path d="M25.527,31.903C26.276,32.715 27.541,32.767 28.354,32.018C29.166,31.27 29.217,30.004 28.469,29.192L25.527,31.903ZM22.186,22.374C21.437,21.561 20.172,21.51 19.36,22.258C18.547,23.007 18.496,24.272 19.244,25.084L22.186,22.374ZM28.469,29.192L22.186,22.374L19.244,25.084L25.527,31.903L28.469,29.192Z" fill="#7E7E7E"/>
</svg>
