<svg width="60" height="60" viewBox="0 0 60 60" fill="none" xmlns="http://www.w3.org/2000/svg" xmlns:xlink="http://www.w3.org/1999/xlink">
<path d="M36.439,38.561C37.025,39.146 37.975,39.146 38.561,38.561C39.146,37.975 39.146,37.025 38.561,36.439L36.439,38.561ZM31.061,28.939C30.475,28.354 29.525,28.354 28.939,28.939C28.354,29.525 28.354,30.475 28.939,31.061L31.061,28.939ZM38.561,36.439L31.061,28.939L28.939,31.061L36.439,38.561L38.561,36.439Z" fill="#1B1B1B"/>
<path d="M31.061,31.061C31.646,30.475 31.646,29.525 31.061,28.939C30.475,28.354 29.525,28.354 28.939,28.939L31.061,31.061ZM21.439,36.439C20.854,37.025 20.854,37.975 21.439,38.561C22.025,39.146 22.975,39.146 23.561,38.561L21.439,36.439ZM28.939,28.939L21.439,36.439L23.561,38.561L31.061,31.061L28.939,28.939Z" fill="#1B1B1B"/>
<path d="M28.5,50C28.5,50.828 29.172,51.5 30,51.5C30.828,51.5 31.5,50.828 31.5,50L28.5,50ZM31.5,30C31.5,29.172 30.828,28.5 30,28.5C29.172,28.5 28.5,29.172 28.5,30L31.5,30ZM31.5,50L31.5,30L28.5,30L28.5,50L31.5,50Z" fill="#1B1B1B"/>
<path d="M20,49C20.828,49 21.5,48.328 21.5,47.5C21.5,46.672 20.828,46 20,46L20,49ZM5,37.5L3.5,37.5L5,37.5ZM15,27.5L15,29C15.435,29 15.848,28.811 16.133,28.483C16.418,28.155 16.546,27.719 16.485,27.289L15,27.5ZM14.975,27.324L16.46,27.113L16.46,27.112L14.975,27.324ZM30,10L30,8.5L30,8.5L30,10ZM45.025,27.324L43.54,27.112L43.54,27.113L45.025,27.324ZM45,27.5L43.515,27.289C43.454,27.719 43.582,28.155 43.867,28.483C44.152,28.811 44.565,29 45,29L45,27.5ZM40,46C39.172,46 38.5,46.672 38.5,47.5C38.5,48.328 39.172,49 40,49L40,46ZM20,46L15,46L15,49L20,49L20,46ZM15,46C10.306,46 6.5,42.194 6.5,37.5L3.5,37.5C3.5,43.851 8.649,49 15,49L15,46ZM6.5,37.5C6.5,32.806 10.306,29 15,29L15,26C8.649,26 3.5,31.149 3.5,37.5L6.5,37.5ZM16.485,27.289L16.46,27.113L13.49,27.535L13.515,27.711L16.485,27.289ZM16.46,27.112C15.899,23.187 17.069,19.211 19.667,16.216L17.401,14.25C14.233,17.903 12.806,22.75 13.49,27.536L16.46,27.112ZM19.667,16.216C22.265,13.221 26.035,11.5 30,11.5L30,8.5C25.165,8.5 20.569,10.598 17.401,14.25L19.667,16.216ZM30,11.5C33.965,11.5 37.735,13.221 40.333,16.216L42.599,14.25C39.431,10.598 34.835,8.5 30,8.5L30,11.5ZM40.333,16.216C42.931,19.211 44.101,23.187 43.54,27.112L46.51,27.536C47.194,22.75 45.767,17.903 42.599,14.25L40.333,16.216ZM43.54,27.113L43.515,27.289L46.485,27.711L46.51,27.535L43.54,27.113ZM45,29C49.694,29 53.5,32.806 53.5,37.5L56.5,37.5C56.5,31.149 51.351,26 45,26L45,29ZM53.5,37.5C53.5,42.194 49.694,46 45,46L45,49C51.351,49 56.5,43.851 56.5,37.5L53.5,37.5ZM45,46L40,46L40,49L45,49L45,46Z" fill="#1B1B1B"/>
</svg>
