<svg width="30" height="34" viewBox="0 0 30 34" fill="none" xmlns="http://www.w3.org/2000/svg" xmlns:xlink="http://www.w3.org/1999/xlink">
<path d="M23.111,14.871C23.111,20.849 18.682,25.411 13.556,25.411L13.556,29.411C21.193,29.411 27.111,22.744 27.111,14.871L23.111,14.871ZM13.556,25.411C8.429,25.411 4,20.849 4,14.871L0,14.871C0,22.744 5.918,29.411 13.556,29.411L13.556,25.411ZM4,14.871C4,8.894 8.429,4.332 13.556,4.332L13.556,0.332C5.918,0.332 0,6.999 0,14.871L4,14.871ZM13.556,4.332C18.682,4.332 23.111,8.894 23.111,14.871L27.111,14.871C27.111,6.999 21.193,0.332 13.556,0.332L13.556,4.332Z" fill="#7E7E7E"/>
<path d="M26.529,31.9C27.277,32.712 28.543,32.764 29.355,32.016C30.167,31.267 30.219,30.002 29.47,29.19L26.529,31.9ZM23.187,22.371C22.439,21.559 21.173,21.507 20.361,22.256C19.549,23.004 19.497,24.27 20.246,25.082L23.187,22.371ZM29.47,29.19L23.187,22.371L20.246,25.082L26.529,31.9L29.47,29.19Z" fill="#7E7E7E"/>
</svg>
