<svg width="32" height="34" viewBox="0 0 32 34" fill="none" xmlns="http://www.w3.org/2000/svg" xmlns:xlink="http://www.w3.org/1999/xlink">
<path d="M24.111,14.873C24.111,20.851 19.682,25.413 14.556,25.413L14.556,29.413C22.193,29.413 28.111,22.746 28.111,14.873L24.111,14.873ZM14.556,25.413C9.429,25.413 5,20.851 5,14.873L1,14.873C1,22.746 6.918,29.413 14.556,29.413L14.556,25.413ZM5,14.873C5,8.896 9.429,4.334 14.556,4.334L14.556,0.334C6.918,0.334 1,7.001 1,14.873L5,14.873ZM14.556,4.334C19.682,4.334 24.111,8.896 24.111,14.873L28.111,14.873C28.111,7.001 22.193,0.334 14.556,0.334L14.556,4.334Z" fill="#7E7E7E"/>
<path d="M27.529,31.903C28.278,32.715 29.543,32.767 30.355,32.019C31.168,31.27 31.219,30.005 30.471,29.192L27.529,31.903ZM24.188,22.374C23.439,21.562 22.174,21.51 21.361,22.259C20.549,23.007 20.498,24.273 21.246,25.085L24.188,22.374ZM30.471,29.192L24.188,22.374L21.246,25.085L27.529,31.903L30.471,29.192Z" fill="#7E7E7E"/>
</svg>
