<svg width="48" height="48" viewBox="0 0 48 48" fill="none" xmlns="http://www.w3.org/2000/svg" xmlns:xlink="http://www.w3.org/1999/xlink">
<path d="M36.5,19.369C36.5,20.198 37.172,20.869 38,20.869C38.828,20.869 39.5,20.198 39.5,19.369L36.5,19.369ZM8.5,19.369C8.5,20.198 9.172,20.869 10,20.869C10.828,20.869 11.5,20.198 11.5,19.369L8.5,19.369ZM39.5,19.369L39.5,9.369L36.5,9.369L36.5,19.369L39.5,19.369ZM39.5,9.369C39.5,7.436 37.933,5.869 36,5.869L36,8.869C36.276,8.869 36.5,9.093 36.5,9.369L39.5,9.369ZM36,5.869L12,5.869L12,8.869L36,8.869L36,5.869ZM12,5.869C10.067,5.869 8.5,7.436 8.5,9.369L11.5,9.369C11.5,9.093 11.724,8.869 12,8.869L12,5.869ZM8.5,9.369L8.5,19.369L11.5,19.369L11.5,9.369L8.5,9.369Z" fill="#FFFFFF"/>
<path d="M8,20.869L40,20.869L40,17.869L8,17.869L8,20.869ZM40,20.869C40.276,20.869 40.5,21.093 40.5,21.369L43.5,21.369C43.5,19.436 41.933,17.869 40,17.869L40,20.869ZM40.5,21.369L40.5,37.369L43.5,37.369L43.5,21.369L40.5,21.369ZM40.5,37.369C40.5,37.645 40.276,37.869 40,37.869L40,40.869C41.933,40.869 43.5,39.302 43.5,37.369L40.5,37.369ZM40,37.869L8,37.869L8,40.869L40,40.869L40,37.869ZM8,37.869C7.724,37.869 7.5,37.645 7.5,37.369L4.5,37.369C4.5,39.302 6.067,40.869 8,40.869L8,37.869ZM7.5,37.369L7.5,21.369L4.5,21.369L4.5,37.369L7.5,37.369ZM7.5,21.369C7.5,21.093 7.724,20.869 8,20.869L8,17.869C6.067,17.869 4.5,19.436 4.5,21.369L7.5,21.369Z" fill="#FFFFFF"/>
<path d="M33.5,39.369C33.5,40.198 34.172,40.869 35,40.869C35.828,40.869 36.5,40.198 36.5,39.369L33.5,39.369ZM18.5,39.369C18.5,40.198 19.172,40.869 20,40.869C20.828,40.869 21.5,40.198 21.5,39.369L18.5,39.369ZM22,32.869L33,32.869L33,29.869L22,29.869L22,32.869ZM33.5,33.369L33.5,39.369L36.5,39.369L36.5,33.369L33.5,33.369ZM21.5,39.369L21.5,33.369L18.5,33.369L18.5,39.369L21.5,39.369ZM33,32.869C33.276,32.869 33.5,33.093 33.5,33.369L36.5,33.369C36.5,31.436 34.933,29.869 33,29.869L33,32.869ZM22,29.869C20.067,29.869 18.5,31.436 18.5,33.369L21.5,33.369C21.5,33.093 21.724,32.869 22,32.869L22,29.869Z" fill="#FFFFFF"/>
<line x1="12" y1="23.869" x2="16" y2="23.869" stroke="#FFFFFF" stroke-width="1.5" stroke-miterlimit="3.999327" stroke-linecap="round" stroke-linejoin="round"/>
</svg>
