<svg width="48" height="48" viewBox="0 0 48 48" fill="none" xmlns="http://www.w3.org/2000/svg" xmlns:xlink="http://www.w3.org/1999/xlink">
<path d="M36.5,19.367C36.5,20.196 37.172,20.867 38,20.867C38.828,20.867 39.5,20.196 39.5,19.367L36.5,19.367ZM8.5,19.367C8.5,20.196 9.172,20.867 10,20.867C10.828,20.867 11.5,20.196 11.5,19.367L8.5,19.367ZM39.5,19.367L39.5,9.367L36.5,9.367L36.5,19.367L39.5,19.367ZM39.5,9.367C39.5,7.434 37.933,5.867 36,5.867L36,8.867C36.276,8.867 36.5,9.091 36.5,9.367L39.5,9.367ZM36,5.867L12,5.867L12,8.867L36,8.867L36,5.867ZM12,5.867C10.067,5.867 8.5,7.434 8.5,9.367L11.5,9.367C11.5,9.091 11.724,8.867 12,8.867L12,5.867ZM8.5,9.367L8.5,19.367L11.5,19.367L11.5,9.367L8.5,9.367Z" fill="#FFFFFF"/>
<path d="M8,20.867L40,20.867L40,17.867L8,17.867L8,20.867ZM40,20.867C40.276,20.867 40.5,21.091 40.5,21.367L43.5,21.367C43.5,19.434 41.933,17.867 40,17.867L40,20.867ZM40.5,21.367L40.5,37.367L43.5,37.367L43.5,21.367L40.5,21.367ZM40.5,37.367C40.5,37.643 40.276,37.867 40,37.867L40,40.867C41.933,40.867 43.5,39.3 43.5,37.367L40.5,37.367ZM40,37.867L8,37.867L8,40.867L40,40.867L40,37.867ZM8,37.867C7.724,37.867 7.5,37.643 7.5,37.367L4.5,37.367C4.5,39.3 6.067,40.867 8,40.867L8,37.867ZM7.5,37.367L7.5,21.367L4.5,21.367L4.5,37.367L7.5,37.367ZM7.5,21.367C7.5,21.091 7.724,20.867 8,20.867L8,17.867C6.067,17.867 4.5,19.434 4.5,21.367L7.5,21.367Z" fill="#FFFFFF"/>
<path d="M33.5,39.367C33.5,40.196 34.172,40.867 35,40.867C35.828,40.867 36.5,40.196 36.5,39.367L33.5,39.367ZM18.5,39.367C18.5,40.196 19.172,40.867 20,40.867C20.828,40.867 21.5,40.196 21.5,39.367L18.5,39.367ZM22,32.867L33,32.867L33,29.867L22,29.867L22,32.867ZM33.5,33.367L33.5,39.367L36.5,39.367L36.5,33.367L33.5,33.367ZM21.5,39.367L21.5,33.367L18.5,33.367L18.5,39.367L21.5,39.367ZM33,32.867C33.276,32.867 33.5,33.091 33.5,33.367L36.5,33.367C36.5,31.434 34.933,29.867 33,29.867L33,32.867ZM22,29.867C20.067,29.867 18.5,31.434 18.5,33.367L21.5,33.367C21.5,33.091 21.724,32.867 22,32.867L22,29.867Z" fill="#FFFFFF"/>
<line x1="12" y1="23.867" x2="16" y2="23.867" stroke="#FFFFFF" stroke-width="1.5" stroke-miterlimit="3.999327" stroke-linecap="round" stroke-linejoin="round"/>
</svg>
