<svg width="24" height="30" viewBox="0 0 24 30" fill="none" xmlns="http://www.w3.org/2000/svg" xmlns:xlink="http://www.w3.org/1999/xlink">
<path d="M20.485,20L12,28.485L3.515,20C-1.172,15.314 -1.172,7.716 3.515,3.029C8.201,-1.657 15.799,-1.657 20.485,3.029C25.172,7.716 25.172,15.314 20.485,20ZM12,16.848C14.945,16.848 17.333,14.46 17.333,11.515C17.333,8.569 14.945,6.181 12,6.181C9.054,6.181 6.667,8.569 6.667,11.515C6.667,14.46 9.054,16.848 12,16.848ZM12,14.181C10.527,14.181 9.333,12.987 9.333,11.515C9.333,10.042 10.527,8.848 12,8.848C13.473,8.848 14.667,10.042 14.667,11.515C14.667,12.987 13.473,14.181 12,14.181Z" fill="#FFFFFF"/>
</svg>
