<svg width="40" height="42" viewBox="0 0 40 42" fill="none" xmlns="http://www.w3.org/2000/svg" xmlns:xlink="http://www.w3.org/1999/xlink">
<path d="M19,0.34C8,0.34 -1,9.34 -1,20.34C-1,30.34 6.4,38.54 15.8,40.14L15.8,26.14L10.8,26.14L10.8,20.34L15.8,20.34L15.8,15.94C15.8,10.94 18.8,8.14 23.4,8.14C25.6,8.14 27.8,8.54 27.8,8.54L27.8,13.54L25.2,13.54C22.8,13.54 22,15.14 22,16.74L22,20.34L27.6,20.34L26.8,26.14L22.2,26.14L22.2,40.14C31.6,38.54 39,30.34 39,20.34C39,9.34 30,0.34 19,0.34Z" fill="#FFFFFF"/>
</svg>
