<svg width="40" height="42" viewBox="0 0 40 42" fill="none" xmlns="http://www.w3.org/2000/svg" xmlns:xlink="http://www.w3.org/1999/xlink">
<path d="M19,0.26C8,0.26 -1,9.26 -1,20.26C-1,30.26 6.4,38.46 15.8,40.06L15.8,26.06L10.8,26.06L10.8,20.26L15.8,20.26L15.8,15.86C15.8,10.86 18.8,8.06 23.4,8.06C25.6,8.06 27.8,8.46 27.8,8.46L27.8,13.46L25.2,13.46C22.8,13.46 22,15.06 22,16.66L22,20.26L27.6,20.26L26.8,26.06L22.2,26.06L22.2,40.06C31.6,38.46 39,30.26 39,20.26C39,9.26 30,0.26 19,0.26Z" fill="#FFFFFF"/>
</svg>
