<svg width="10" height="10" viewBox="0 0 10 10" fill="none" xmlns="http://www.w3.org/2000/svg" xmlns:xlink="http://www.w3.org/1999/xlink">
<path d="M8.152,4.131C8.152,5.163 7.743,6.152 7.013,6.881C6.284,7.61 5.295,8.02 4.264,8.02C3.753,8.02 3.247,7.92 2.775,7.724C2.303,7.529 1.874,7.243 1.513,6.882C1.152,6.521 0.865,6.092 0.67,5.62C0.474,5.148 0.374,4.642 0.374,4.131C0.374,3.1 0.783,2.111 1.512,1.382C2.242,0.653 3.231,0.243 4.262,0.243C5.293,0.243 6.282,0.653 7.011,1.382C7.741,2.111 8.152,3.1 8.152,4.131Z" fill="#2A6C12"/>
</svg>
