<svg width="36" height="38" viewBox="0 0 36 38" fill="none" xmlns="http://www.w3.org/2000/svg" xmlns:xlink="http://www.w3.org/1999/xlink">
<path d="M17,3.584C21.806,3.584 22.376,3.602 24.274,3.688C26.028,3.768 26.982,4.062 27.616,4.308C28.456,4.634 29.056,5.024 29.686,5.654C30.316,6.284 30.706,6.884 31.032,7.724C31.278,8.358 31.572,9.312 31.652,11.066C31.738,12.964 31.756,13.534 31.756,18.34C31.756,23.146 31.738,23.716 31.652,25.614C31.572,27.368 31.278,28.322 31.032,28.956C30.706,29.796 30.316,30.396 29.686,31.026C29.056,31.656 28.456,32.046 27.616,32.372C26.982,32.618 26.028,32.912 24.274,32.992C22.376,33.078 21.808,33.096 17,33.096C12.192,33.096 11.624,33.078 9.726,32.992C7.972,32.912 7.018,32.618 6.384,32.372C5.544,32.046 4.944,31.656 4.314,31.026C3.684,30.396 3.294,29.796 2.968,28.956C2.722,28.322 2.428,27.368 2.348,25.614C2.262,23.716 2.244,23.146 2.244,18.34C2.244,13.534 2.262,12.964 2.348,11.066C2.428,9.312 2.722,8.358 2.968,7.724C3.294,6.884 3.684,6.284 4.314,5.654C4.944,5.024 5.544,4.634 6.384,4.308C7.018,4.062 7.972,3.768 9.726,3.688C11.624,3.602 12.194,3.584 17,3.584ZM17,0.34C12.112,0.34 11.498,0.36 9.578,0.448C7.662,0.536 6.354,0.84 5.21,1.284C4.026,1.744 3.022,2.36 2.022,3.362C1.022,4.362 0.406,5.366 -0.054,6.55C-0.5,7.694 -0.804,9.002 -0.892,10.918C-0.98,12.838 -1,13.452 -1,18.34C-1,23.228 -0.98,23.842 -0.892,25.762C-0.804,27.678 -0.5,28.986 -0.056,30.132C0.404,31.316 1.02,32.32 2.02,33.32C3.02,34.32 4.024,34.936 5.208,35.396C6.352,35.84 7.662,36.146 9.578,36.232C11.498,36.32 12.112,36.34 17,36.34C21.888,36.34 22.502,36.32 24.422,36.232C26.338,36.144 27.646,35.84 28.792,35.396C29.976,34.936 30.98,34.32 31.98,33.32C32.98,32.32 33.596,31.316 34.056,30.132C34.5,28.988 34.806,27.678 34.892,25.762C34.98,23.842 35,23.228 35,18.34C35,13.452 34.98,12.838 34.892,10.918C34.804,9.002 34.5,7.694 34.056,6.548C33.596,5.364 32.98,4.36 31.98,3.36C30.98,2.36 29.976,1.744 28.792,1.284C27.648,0.84 26.338,0.534 24.422,0.448C22.502,0.36 21.888,0.34 17,0.34ZM17,9.096C11.896,9.096 7.756,13.234 7.756,18.34C7.756,23.446 11.896,27.584 17,27.584C22.104,27.584 26.244,23.446 26.244,18.34C26.244,13.234 22.104,9.096 17,9.096ZM17,24.34C13.686,24.34 11,21.654 11,18.34C11,15.026 13.686,12.34 17,12.34C20.314,12.34 23,15.026 23,18.34C23,21.654 20.314,24.34 17,24.34ZM26.608,6.572C25.416,6.572 24.448,7.54 24.448,8.732C24.448,9.924 25.416,10.892 26.608,10.892C27.8,10.892 28.768,9.924 28.768,8.732C28.768,7.54 27.802,6.572 26.608,6.572Z" fill="#FFFFFF"/>
</svg>
