<svg width="44" height="32" viewBox="0 0 44 32" fill="none" xmlns="http://www.w3.org/2000/svg" xmlns:xlink="http://www.w3.org/1999/xlink">
<path d="M16.667,18.268L19.333,18.268L16.667,18.268ZM3.333,26.268C1.861,26.268 0.667,27.462 0.667,28.934C0.667,30.407 1.861,31.601 3.333,31.601L3.333,26.268ZM27.333,26.268C25.861,26.268 24.667,27.462 24.667,28.934C24.667,30.407 25.861,31.601 27.333,31.601L27.333,26.268ZM19.333,12.934L19.333,4.934L14,4.934L14,12.934L19.333,12.934ZM19.333,4.934C19.333,3.528 18.853,2.149 17.819,1.115C16.785,0.081 15.406,-0.399 14,-0.399L14,4.934C14.103,4.934 14.142,4.951 14.134,4.948C14.131,4.947 14.119,4.942 14.102,4.931C14.085,4.92 14.066,4.905 14.048,4.887C14.029,4.868 14.014,4.849 14.003,4.832C13.992,4.815 13.987,4.803 13.986,4.8C13.983,4.792 14,4.831 14,4.934L19.333,4.934ZM14,-0.399L6,-0.399L6,4.934L14,4.934L14,-0.399ZM6,-0.399C4.586,-0.399 3.229,0.163 2.229,1.163L6,4.934L6,4.934L6,-0.399ZM2.229,1.163C1.229,2.163 0.667,3.52 0.667,4.934L6,4.934L6,4.934L2.229,1.163ZM0.667,4.934L0.667,12.934L6,12.934L6,4.934L0.667,4.934ZM0.667,12.934C0.667,14.34 1.147,15.719 2.181,16.753C3.215,17.787 4.594,18.268 6,18.268L6,12.934C5.897,12.934 5.858,12.917 5.866,12.92C5.869,12.922 5.881,12.927 5.898,12.938C5.915,12.949 5.934,12.963 5.952,12.982C5.971,13.001 5.986,13.019 5.997,13.037C6.008,13.054 6.013,13.065 6.014,13.069C6.017,13.076 6,13.037 6,12.934L0.667,12.934ZM6,18.268L14,18.268L14,12.934L6,12.934L6,18.268ZM14,18.268C15.406,18.268 16.785,17.787 17.819,16.753C18.853,15.719 19.333,14.34 19.333,12.934L14,12.934C14,13.037 13.983,13.076 13.986,13.069C13.987,13.065 13.992,13.054 14.003,13.037C14.014,13.019 14.029,13.001 14.048,12.982C14.066,12.963 14.085,12.949 14.102,12.938C14.119,12.927 14.131,12.922 14.134,12.92C14.142,12.917 14.103,12.934 14,12.934L14,18.268ZM14,12.934L14,18.268L19.333,18.268L19.333,12.934L14,12.934ZM14,18.268C14,20.389 13.157,22.424 11.657,23.924L15.428,27.696C17.929,25.195 19.333,21.804 19.333,18.268L14,18.268ZM11.657,23.924C10.157,25.425 8.122,26.268 6,26.268L6,31.601C9.536,31.601 12.928,30.196 15.428,27.696L11.657,23.924ZM6,26.268L3.333,26.268L3.333,31.601L6,31.601L6,26.268ZM43.333,12.934L43.333,4.934L38,4.934L38,12.934L43.333,12.934ZM43.333,4.934C43.333,3.528 42.853,2.149 41.819,1.115C40.785,0.081 39.406,-0.399 38,-0.399L38,4.934C38.103,4.934 38.142,4.951 38.134,4.948C38.131,4.947 38.119,4.942 38.102,4.931C38.085,4.92 38.066,4.905 38.048,4.887C38.029,4.868 38.014,4.849 38.003,4.832C37.992,4.815 37.987,4.803 37.986,4.8C37.983,4.792 38,4.831 38,4.934L43.333,4.934ZM38,-0.399L30,-0.399L30,4.934L38,4.934L38,-0.399ZM30,-0.399C28.586,-0.399 27.229,0.163 26.229,1.163L30,4.934L30,4.934L30,-0.399ZM26.229,1.163C25.229,2.163 24.667,3.52 24.667,4.934L30,4.934L30,4.934L26.229,1.163ZM24.667,4.934L24.667,12.934L30,12.934L30,4.934L24.667,4.934ZM24.667,12.934C24.667,14.34 25.147,15.719 26.181,16.753C27.215,17.787 28.594,18.268 30,18.268L30,12.934C29.897,12.934 29.858,12.917 29.866,12.92C29.869,12.922 29.881,12.927 29.898,12.938C29.915,12.949 29.934,12.963 29.952,12.982C29.971,13.001 29.986,13.019 29.997,13.037C30.008,13.054 30.013,13.065 30.014,13.069C30.017,13.076 30,13.037 30,12.934L24.667,12.934ZM30,18.268L38,18.268L38,12.934L30,12.934L30,18.268ZM38,18.268C39.406,18.268 40.785,17.787 41.819,16.753C42.853,15.719 43.333,14.34 43.333,12.934L38,12.934C38,13.037 37.983,13.076 37.986,13.069C37.987,13.065 37.992,13.054 38.003,13.037C38.014,13.019 38.029,13.001 38.048,12.982C38.066,12.963 38.085,12.949 38.102,12.938C38.119,12.927 38.131,12.922 38.134,12.92C38.142,12.917 38.103,12.934 38,12.934L38,18.268ZM38,12.934L38,18.268L43.333,18.268L43.333,12.934L38,12.934ZM38,18.268C38,20.389 37.157,22.424 35.657,23.924L39.428,27.696C41.929,25.195 43.333,21.804 43.333,18.268L38,18.268ZM35.657,23.924C34.157,25.425 32.122,26.268 30,26.268L30,31.601C33.536,31.601 36.928,30.196 39.428,27.696L35.657,23.924ZM30,26.268L27.333,26.268L27.333,31.601L30,31.601L30,26.268Z" fill="#2A6C12"/>
</svg>
