<svg width="40" height="30" viewBox="0 0 40 30" fill="none" xmlns="http://www.w3.org/2000/svg" xmlns:xlink="http://www.w3.org/1999/xlink">
<path d="M38.6,7.002C38.6,7.002 38.21,4.246 37.01,3.032C35.49,1.438 33.784,1.43 33.002,1.338C27.404,0.934 19.008,0.934 19.008,0.934L18.99,0.934C18.99,0.934 10.594,0.934 4.996,1.338C4.216,1.432 2.512,1.44 0.99,3.032C-0.21,4.246 -0.6,7.002 -0.6,7.002C-0.6,7.002 -1,10.24 -1,13.476L-1,16.51C-1,19.746 -0.6,22.984 -0.6,22.984C-0.6,22.984 -0.21,25.74 0.99,26.954C2.512,28.548 4.51,28.496 5.4,28.664C8.6,28.97 19,29.066 19,29.066C19,29.066 27.406,29.054 33.002,28.648C33.784,28.554 35.488,28.546 37.01,26.954C38.21,25.74 38.6,22.984 38.6,22.984C38.6,22.984 39,19.748 39,16.51L39,13.476C39,10.24 38.6,7.002 38.6,7.002ZM14.87,20.188L14.868,8.948L25.676,14.588L14.87,20.188Z" fill="#FFFFFF"/>
</svg>
