<svg width="28" height="28" viewBox="0 0 28 28" fill="none" xmlns="http://www.w3.org/2000/svg" xmlns:xlink="http://www.w3.org/1999/xlink">
<path d="M15.371,0.668C16.871,0.67 17.632,0.678 18.289,0.698L18.548,0.706C18.847,0.717 19.141,0.73 19.497,0.747C20.916,0.813 21.884,1.037 22.734,1.367C23.613,1.706 24.355,2.164 25.096,2.905C25.836,3.646 26.294,4.39 26.634,5.267C26.963,6.116 27.187,7.085 27.254,8.504C27.27,8.859 27.282,9.154 27.293,9.453L27.301,9.712C27.321,10.369 27.33,11.129 27.333,12.63L27.334,13.624C27.334,13.746 27.334,13.871 27.334,14L27.334,14.377L27.333,15.371C27.33,16.871 27.322,17.632 27.303,18.289L27.294,18.548C27.284,18.847 27.27,19.141 27.254,19.497C27.188,20.916 26.963,21.884 26.634,22.734C26.295,23.613 25.836,24.355 25.096,25.096C24.355,25.836 23.609,26.294 22.734,26.634C21.884,26.963 20.916,27.187 19.497,27.254C19.141,27.27 18.847,27.282 18.548,27.293L18.289,27.301C17.632,27.321 16.871,27.33 15.371,27.333L14.377,27.334C14.255,27.334 14.13,27.334 14,27.334L13.624,27.334L12.63,27.333C11.129,27.33 10.369,27.322 9.712,27.303L9.453,27.294C9.154,27.284 8.859,27.27 8.504,27.254C7.085,27.188 6.118,26.963 5.267,26.634C4.389,26.295 3.646,25.836 2.905,25.096C2.164,24.355 1.707,23.609 1.367,22.734C1.037,21.884 0.814,20.916 0.747,19.497C0.731,19.141 0.718,18.847 0.708,18.548L0.699,18.289C0.68,17.632 0.671,16.871 0.668,15.371L0.668,12.63C0.67,11.129 0.678,10.369 0.698,9.712L0.706,9.453C0.717,9.154 0.73,8.859 0.747,8.504C0.813,7.084 1.037,6.117 1.367,5.267C1.706,4.389 2.164,3.646 2.905,2.905C3.646,2.164 4.39,1.707 5.267,1.367C6.117,1.037 7.084,0.814 8.504,0.747C8.859,0.731 9.154,0.718 9.453,0.708L9.712,0.699C10.369,0.68 11.129,0.671 12.63,0.668L15.371,0.668ZM14,7.334C10.317,7.334 7.334,10.32 7.334,14C7.334,17.684 10.32,20.667 14,20.667C17.684,20.667 20.667,17.681 20.667,14C20.667,10.317 17.681,7.334 14,7.334ZM14,10C16.21,10 18,11.791 18,14C18,16.21 16.21,18 14,18C11.791,18 10,16.21 10,14C10,11.791 11.791,10 14,10ZM21,5.334C20.081,5.334 19.334,6.08 19.334,6.999C19.334,7.918 20.08,8.666 21,8.666C21.919,8.666 22.667,7.919 22.667,6.999C22.667,6.08 21.918,5.333 21,5.334Z" fill="#FFFFFF"/>
</svg>
