<svg width="10" height="8" viewBox="0 0 10 8" fill="none" xmlns="http://www.w3.org/2000/svg" xmlns:xlink="http://www.w3.org/1999/xlink">
<path d="M8.152,3.122C8.152,4.153 7.743,5.142 7.013,5.871C6.284,6.6 5.295,7.01 4.264,7.01C3.753,7.01 3.247,6.91 2.775,6.715C2.303,6.519 1.874,6.233 1.513,5.872C1.152,5.511 0.865,5.082 0.67,4.61C0.474,4.138 0.374,3.633 0.374,3.122C0.374,2.09 0.783,1.101 1.512,0.372C2.242,-0.357 3.231,-0.767 4.262,-0.767C5.293,-0.767 6.282,-0.357 7.011,0.372C7.741,1.101 8.152,2.09 8.152,3.122Z" fill="#2A6C12"/>
</svg>
