<svg width="8" height="10" viewBox="0 0 8 10" fill="none" xmlns="http://www.w3.org/2000/svg" xmlns:xlink="http://www.w3.org/1999/xlink">
<path d="M7.829,4.878C7.829,5.91 7.417,6.899 6.683,7.628C5.949,8.357 4.953,8.767 3.916,8.767C3.401,8.767 2.892,8.667 2.417,8.471C1.942,8.276 1.511,7.99 1.147,7.629C0.783,7.268 0.495,6.839 0.298,6.367C0.101,5.895 0,5.389 0,4.878C0,3.847 0.412,2.858 1.146,2.129C1.88,1.4 2.876,0.99 3.914,0.99C4.951,0.99 5.947,1.4 6.681,2.129C7.415,2.858 7.829,3.847 7.829,4.878Z" fill="#333333"/>
</svg>
