<svg width="24" height="30" viewBox="0 0 24 30" fill="none" xmlns="http://www.w3.org/2000/svg" xmlns:xlink="http://www.w3.org/1999/xlink">
<path d="M20.485,21.313L12,29.798L3.515,21.313C-1.172,16.626 -1.172,9.028 3.515,4.342C8.201,-0.344 15.799,-0.344 20.485,4.342C25.172,9.028 25.172,16.626 20.485,21.313ZM12,18.16C14.945,18.16 17.333,15.773 17.333,12.827C17.333,9.882 14.945,7.494 12,7.494C9.054,7.494 6.667,9.882 6.667,12.827C6.667,15.773 9.054,18.16 12,18.16ZM12,15.494C10.527,15.494 9.333,14.3 9.333,12.827C9.333,11.354 10.527,10.16 12,10.16C13.473,10.16 14.667,11.354 14.667,12.827C14.667,14.3 13.473,15.494 12,15.494Z" fill="#FFFFFF"/>
</svg>
