<svg width="28" height="22" viewBox="0 0 28 22" fill="none" xmlns="http://www.w3.org/2000/svg" xmlns:xlink="http://www.w3.org/1999/xlink">
<path d="M14.326,-0.667C15.038,-0.663 16.819,-0.646 18.712,-0.57L19.384,-0.54C21.29,-0.45 23.194,-0.296 24.139,-0.033C25.398,0.321 26.389,1.354 26.723,2.663C27.256,4.742 27.323,8.799 27.331,9.781L27.332,9.985L27.332,9.999C27.332,9.999 27.332,10.004 27.332,10.013L27.331,10.217C27.323,11.199 27.256,15.256 26.723,17.335C26.384,18.649 25.394,19.681 24.139,20.03C23.194,20.294 21.29,20.448 19.384,20.538L18.712,20.567C16.819,20.643 15.038,20.66 14.326,20.664L14.013,20.666L13.999,20.666C13.999,20.666 13.994,20.666 13.985,20.666L13.673,20.664C12.166,20.656 5.864,20.588 3.86,20.03C2.6,19.676 1.61,18.644 1.275,17.335C0.742,15.256 0.675,11.199 0.667,10.217L0.667,9.781C0.675,8.799 0.742,4.742 1.275,2.663C1.614,1.349 2.604,0.316 3.86,-0.033C5.864,-0.59 12.166,-0.658 13.673,-0.667L14.326,-0.667ZM11.332,5.332L11.332,14.665L19.332,9.999L11.332,5.332Z" fill="#FFFFFF"/>
</svg>
