<svg width="8" height="8" viewBox="0 0 8 8" fill="none" xmlns="http://www.w3.org/2000/svg" xmlns:xlink="http://www.w3.org/1999/xlink">
<path d="M7.829,3.888C7.829,4.92 7.417,5.909 6.683,6.638C5.949,7.367 4.953,7.777 3.916,7.777C3.401,7.777 2.892,7.677 2.417,7.481C1.942,7.286 1.511,7 1.147,6.639C0.783,6.277 0.495,5.849 0.298,5.377C0.101,4.905 0,4.399 0,3.888C0,2.857 0.412,1.868 1.146,1.139C1.88,0.41 2.876,0 3.914,0C4.951,0 5.947,0.41 6.681,1.139C7.415,1.868 7.829,2.857 7.829,3.888Z" fill="#333333"/>
</svg>
