<svg width="30" height="32" viewBox="0 0 30 32" fill="none" xmlns="http://www.w3.org/2000/svg" xmlns:xlink="http://www.w3.org/1999/xlink">
<path d="M16.558,0.322C9.138,-0.701 2.101,3.908 0.071,11.119C-1.958,18.33 1.641,25.934 8.505,28.933C8.414,27.781 8.497,26.622 8.748,25.494C9.025,24.236 10.692,17.3 10.692,17.3C10.36,16.556 10.194,15.748 10.205,14.934C10.205,12.706 11.491,11.044 13.09,11.044C13.671,11.036 14.228,11.28 14.614,11.715C15.001,12.149 15.179,12.73 15.103,13.306C15.103,14.657 14.236,16.7 13.785,18.615C13.603,19.328 13.77,20.085 14.236,20.655C14.702,21.224 15.411,21.538 16.146,21.501C18.992,21.501 20.902,17.854 20.902,13.549C20.902,10.248 18.715,7.778 14.687,7.778C12.739,7.703 10.846,8.429 9.449,9.788C8.051,11.147 7.272,13.019 7.292,14.968C7.249,16.038 7.594,17.087 8.263,17.923C8.521,18.115 8.62,18.454 8.507,18.754C8.438,19.031 8.263,19.689 8.194,19.931C8.165,20.097 8.059,20.239 7.908,20.314C7.758,20.389 7.58,20.389 7.43,20.312C5.353,19.481 4.375,17.196 4.375,14.588C4.375,10.317 7.952,5.204 15.106,5.204C20.8,5.204 24.585,9.371 24.585,13.826C24.585,19.689 21.321,24.098 16.495,24.098C15.029,24.144 13.641,23.439 12.814,22.228C12.814,22.228 11.947,25.702 11.776,26.36C11.427,27.495 10.912,28.572 10.248,29.557C11.632,29.976 13.071,30.187 14.517,30.18C18.496,30.183 22.312,28.603 25.125,25.788C27.937,22.974 29.515,19.156 29.511,15.176C29.506,7.685 23.978,1.344 16.558,0.322Z" fill="#FFFFFF"/>
</svg>
