<svg width="10" height="8" viewBox="0 0 10 8" fill="none" xmlns="http://www.w3.org/2000/svg" xmlns:xlink="http://www.w3.org/1999/xlink">
<path d="M8.152,3.626C8.152,4.657 7.743,5.646 7.013,6.375C6.284,7.104 5.295,7.514 4.264,7.514C3.753,7.514 3.247,7.414 2.775,7.219C2.303,7.023 1.874,6.737 1.513,6.376C1.152,6.015 0.865,5.586 0.67,5.114C0.474,4.642 0.374,4.136 0.374,3.626C0.374,2.594 0.783,1.605 1.512,0.876C2.242,0.147 3.231,-0.263 4.262,-0.263C5.293,-0.263 6.282,0.147 7.011,0.876C7.741,1.605 8.152,2.594 8.152,3.626Z" fill="#2A6C12"/>
</svg>
