<svg width="30" height="32" viewBox="0 0 30 32" fill="none" xmlns="http://www.w3.org/2000/svg" xmlns:xlink="http://www.w3.org/1999/xlink">
<path d="M15.4,18.2C14.947,18.2 14.567,18.046 14.261,17.739C13.954,17.433 13.8,17.053 13.8,16.6C13.8,16.147 13.954,15.766 14.261,15.459C14.567,15.153 14.947,15 15.4,15C15.853,15 16.234,15.153 16.541,15.459C16.847,15.766 17,16.147 17,16.6C17,17.053 16.847,17.433 16.541,17.739C16.234,18.046 15.853,18.2 15.4,18.2ZM9,18.2C8.547,18.2 8.166,18.046 7.859,17.739C7.553,17.433 7.4,17.053 7.4,16.6C7.4,16.147 7.553,15.766 7.859,15.459C8.166,15.153 8.547,15 9,15C9.453,15 9.834,15.153 10.141,15.459C10.447,15.766 10.6,16.147 10.6,16.6C10.6,17.053 10.447,17.433 10.141,17.739C9.834,18.046 9.453,18.2 9,18.2ZM21.8,18.2C21.347,18.2 20.967,18.046 20.661,17.739C20.354,17.433 20.2,17.053 20.2,16.6C20.2,16.147 20.354,15.766 20.661,15.459C20.967,15.153 21.347,15 21.8,15C22.253,15 22.633,15.153 22.939,15.459C23.246,15.766 23.4,16.147 23.4,16.6C23.4,17.053 23.246,17.433 22.939,17.739C22.633,18.046 22.253,18.2 21.8,18.2ZM15.4,24.6C14.947,24.6 14.567,24.446 14.261,24.139C13.954,23.833 13.8,23.453 13.8,23C13.8,22.547 13.954,22.167 14.261,21.861C14.567,21.554 14.947,21.4 15.4,21.4C15.853,21.4 16.234,21.554 16.541,21.861C16.847,22.167 17,22.547 17,23C17,23.453 16.847,23.833 16.541,24.139C16.234,24.446 15.853,24.6 15.4,24.6ZM9,24.6C8.547,24.6 8.166,24.446 7.859,24.139C7.553,23.833 7.4,23.453 7.4,23C7.4,22.547 7.553,22.167 7.859,21.861C8.166,21.554 8.547,21.4 9,21.4C9.453,21.4 9.834,21.554 10.141,21.861C10.447,22.167 10.6,22.547 10.6,23C10.6,23.453 10.447,23.833 10.141,24.139C9.834,24.446 9.453,24.6 9,24.6ZM21.8,24.6C21.347,24.6 20.967,24.446 20.661,24.139C20.354,23.833 20.2,23.453 20.2,23C20.2,22.547 20.354,22.167 20.661,21.861C20.967,21.554 21.347,21.4 21.8,21.4C22.253,21.4 22.633,21.554 22.939,21.861C23.246,22.167 23.4,22.547 23.4,23C23.4,23.453 23.246,23.833 22.939,24.139C22.633,24.446 22.253,24.6 21.8,24.6ZM4.2,31C3.32,31 2.566,30.687 1.939,30.061C1.313,29.434 1,28.68 1,27.8L1,5.4C1,4.52 1.313,3.767 1.939,3.141C2.566,2.514 3.32,2.2 4.2,2.2L5.8,2.2L5.8,-1L9,-1L9,2.2L21.8,2.2L21.8,-1L25,-1L25,2.2L26.6,2.2C27.48,2.2 28.234,2.514 28.861,3.141C29.487,3.767 29.8,4.52 29.8,5.4L29.8,27.8C29.8,28.68 29.487,29.434 28.861,30.061C28.234,30.687 27.48,31 26.6,31L4.2,31ZM4.2,27.8L26.6,27.8L26.6,11.8L4.2,11.8L4.2,27.8Z" fill="#AAAAAA"/>
</svg>
