<svg width="40" height="30" viewBox="0 0 40 30" fill="none" xmlns="http://www.w3.org/2000/svg" xmlns:xlink="http://www.w3.org/1999/xlink">
<path d="M39.6,6.002C39.6,6.002 39.21,3.246 38.01,2.032C36.49,0.438 34.784,0.43 34.002,0.338C28.404,-0.066 20.008,-0.066 20.008,-0.066L19.99,-0.066C19.99,-0.066 11.594,-0.066 5.996,0.338C5.216,0.432 3.512,0.44 1.99,2.032C0.79,3.246 0.4,6.002 0.4,6.002C0.4,6.002 0,9.24 0,12.476L0,15.51C0,18.746 0.4,21.984 0.4,21.984C0.4,21.984 0.79,24.74 1.99,25.954C3.512,27.548 5.51,27.496 6.4,27.664C9.6,27.97 20,28.066 20,28.066C20,28.066 28.406,28.054 34.002,27.648C34.784,27.554 36.488,27.546 38.01,25.954C39.21,24.74 39.6,21.984 39.6,21.984C39.6,21.984 40,18.748 40,15.51L40,12.476C40,9.24 39.6,6.002 39.6,6.002ZM15.87,19.188L15.868,7.948L26.676,13.588L15.87,19.188Z" fill="#000000"/>
</svg>
