<svg width="10" height="8" viewBox="0 0 10 8" fill="none" xmlns="http://www.w3.org/2000/svg" xmlns:xlink="http://www.w3.org/1999/xlink">
<path d="M8.152,3.888C8.152,4.92 7.743,5.909 7.013,6.638C6.284,7.367 5.295,7.777 4.264,7.777C3.753,7.777 3.247,7.677 2.775,7.481C2.303,7.286 1.874,7 1.513,6.639C1.152,6.277 0.865,5.849 0.67,5.377C0.474,4.905 0.374,4.399 0.374,3.888C0.374,2.857 0.783,1.868 1.512,1.139C2.242,0.41 3.231,0 4.262,0C5.293,0 6.282,0.41 7.011,1.139C7.741,1.868 8.152,2.857 8.152,3.888Z" fill="#2A6C12"/>
</svg>
