<svg width="16" height="10" viewBox="0 0 16 10" fill="none" xmlns="http://www.w3.org/2000/svg" xmlns:xlink="http://www.w3.org/1999/xlink">
<path d="M2.746,3.534C2.378,3.122 1.746,3.086 1.334,3.454C0.922,3.822 0.886,4.454 1.254,4.866L2.746,3.534ZM14.72,1.694C15.103,1.297 15.092,0.664 14.694,0.28C14.297,-0.103 13.664,-0.092 13.28,0.306L14.72,1.694ZM1.254,4.866L4.822,8.862L6.314,7.53L2.746,3.534L1.254,4.866ZM7.754,8.918L14.72,1.694L13.28,0.306L6.314,7.53L7.754,8.918ZM4.822,8.862C5.597,9.73 6.946,9.756 7.754,8.918L6.314,7.53L6.314,7.53L4.822,8.862Z" fill="#FFFFFF"/>
</svg>
