<svg width="8" height="8" viewBox="0 0 8 8" fill="none" xmlns="http://www.w3.org/2000/svg" xmlns:xlink="http://www.w3.org/1999/xlink">
<path d="M7.829,3.626C7.829,4.657 7.417,5.646 6.683,6.375C5.949,7.104 4.953,7.514 3.916,7.514C3.401,7.514 2.892,7.414 2.417,7.218C1.942,7.023 1.511,6.737 1.147,6.376C0.783,6.015 0.495,5.586 0.298,5.114C0.101,4.642 0,4.136 0,3.626C0,2.594 0.412,1.605 1.146,0.876C1.88,0.147 2.876,-0.263 3.914,-0.263C4.951,-0.263 5.947,0.147 6.681,0.876C7.415,1.605 7.829,2.594 7.829,3.626Z" fill="#333333"/>
</svg>
