<svg width="40" height="30" viewBox="0 0 40 30" fill="none" xmlns="http://www.w3.org/2000/svg" xmlns:xlink="http://www.w3.org/1999/xlink">
<path d="M39.6,7.002C39.6,7.002 39.21,4.246 38.01,3.032C36.49,1.438 34.784,1.43 34.002,1.338C28.404,0.934 20.008,0.934 20.008,0.934L19.99,0.934C19.99,0.934 11.594,0.934 5.996,1.338C5.216,1.432 3.512,1.44 1.99,3.032C0.79,4.246 0.4,7.002 0.4,7.002C0.4,7.002 0,10.24 0,13.476L0,16.51C0,19.746 0.4,22.984 0.4,22.984C0.4,22.984 0.79,25.74 1.99,26.954C3.512,28.548 5.51,28.496 6.4,28.664C9.6,28.97 20,29.066 20,29.066C20,29.066 28.406,29.054 34.002,28.648C34.784,28.554 36.488,28.546 38.01,26.954C39.21,25.74 39.6,22.984 39.6,22.984C39.6,22.984 40,19.748 40,16.51L40,13.476C40,10.24 39.6,7.002 39.6,7.002ZM15.87,20.188L15.868,8.948L26.676,14.588L15.87,20.188Z" fill="#FFFFFF"/>
</svg>
