<svg width="30" height="32" viewBox="0 0 30 32" fill="none" xmlns="http://www.w3.org/2000/svg" xmlns:xlink="http://www.w3.org/1999/xlink">
<path d="M16.058,1.142C8.638,0.119 1.601,4.728 -0.429,11.939C-2.459,19.15 1.141,26.754 8.004,29.753C7.914,28.601 7.996,27.442 8.248,26.314C8.524,25.056 10.192,18.12 10.192,18.12C9.86,17.376 9.693,16.568 9.705,15.754C9.705,13.526 10.99,11.864 12.59,11.864C13.171,11.856 13.727,12.1 14.114,12.535C14.5,12.969 14.679,13.55 14.603,14.126C14.603,15.477 13.735,17.52 13.284,19.435C13.102,20.148 13.27,20.905 13.736,21.475C14.201,22.044 14.91,22.358 15.645,22.321C18.492,22.321 20.401,18.674 20.401,14.369C20.401,11.068 18.215,8.598 14.186,8.598C12.239,8.523 10.346,9.249 8.948,10.608C7.551,11.967 6.771,13.839 6.791,15.789C6.748,16.858 7.093,17.908 7.763,18.743C8.02,18.935 8.12,19.274 8.006,19.574C7.937,19.851 7.763,20.509 7.694,20.751C7.664,20.917 7.558,21.059 7.408,21.134C7.257,21.209 7.08,21.209 6.93,21.132C4.853,20.301 3.874,18.016 3.874,15.408C3.874,11.137 7.451,6.025 14.605,6.025C20.3,6.025 24.085,10.191 24.085,14.646C24.085,20.509 20.82,24.918 15.995,24.918C14.529,24.964 13.141,24.259 12.314,23.048C12.314,23.048 11.446,26.522 11.275,27.18C10.927,28.315 10.412,29.392 9.748,30.377C11.132,30.796 12.571,31.007 14.017,31C17.995,31.003 21.812,29.423 24.624,26.608C27.437,23.794 29.015,19.976 29.01,15.996C29.006,8.505 23.478,2.164 16.058,1.142Z" fill="#000000"/>
</svg>
