<svg width="8" height="10" viewBox="0 0 8 10" fill="none" xmlns="http://www.w3.org/2000/svg" xmlns:xlink="http://www.w3.org/1999/xlink">
<path d="M7.829,4.635C7.829,5.667 7.417,6.656 6.683,7.385C5.949,8.114 4.953,8.524 3.916,8.524C3.401,8.524 2.892,8.424 2.417,8.228C1.942,8.033 1.511,7.747 1.147,7.386C0.783,7.024 0.495,6.596 0.298,6.124C0.101,5.652 0,5.146 0,4.635C0,3.604 0.412,2.615 1.146,1.886C1.88,1.157 2.876,0.747 3.914,0.747C4.951,0.747 5.947,1.157 6.681,1.886C7.415,2.615 7.829,3.604 7.829,4.635Z" fill="#333333"/>
</svg>
