<svg width="36" height="38" viewBox="0 0 36 38" fill="none" xmlns="http://www.w3.org/2000/svg" xmlns:xlink="http://www.w3.org/1999/xlink">
<path d="M17,3.504C21.806,3.504 22.376,3.522 24.274,3.608C26.028,3.688 26.982,3.982 27.616,4.228C28.456,4.554 29.056,4.944 29.686,5.574C30.316,6.204 30.706,6.804 31.032,7.644C31.278,8.278 31.572,9.232 31.652,10.986C31.738,12.884 31.756,13.454 31.756,18.26C31.756,23.066 31.738,23.636 31.652,25.534C31.572,27.288 31.278,28.242 31.032,28.876C30.706,29.716 30.316,30.316 29.686,30.946C29.056,31.576 28.456,31.966 27.616,32.292C26.982,32.538 26.028,32.832 24.274,32.912C22.376,32.998 21.808,33.016 17,33.016C12.192,33.016 11.624,32.998 9.726,32.912C7.972,32.832 7.018,32.538 6.384,32.292C5.544,31.966 4.944,31.576 4.314,30.946C3.684,30.316 3.294,29.716 2.968,28.876C2.722,28.242 2.428,27.288 2.348,25.534C2.262,23.636 2.244,23.066 2.244,18.26C2.244,13.454 2.262,12.884 2.348,10.986C2.428,9.232 2.722,8.278 2.968,7.644C3.294,6.804 3.684,6.204 4.314,5.574C4.944,4.944 5.544,4.554 6.384,4.228C7.018,3.982 7.972,3.688 9.726,3.608C11.624,3.522 12.194,3.504 17,3.504ZM17,0.26C12.112,0.26 11.498,0.28 9.578,0.368C7.662,0.456 6.354,0.76 5.21,1.204C4.026,1.664 3.022,2.28 2.022,3.282C1.022,4.282 0.406,5.286 -0.054,6.47C-0.5,7.614 -0.804,8.922 -0.892,10.838C-0.98,12.758 -1,13.372 -1,18.26C-1,23.148 -0.98,23.762 -0.892,25.682C-0.804,27.598 -0.5,28.906 -0.056,30.052C0.404,31.236 1.02,32.24 2.02,33.24C3.02,34.24 4.024,34.856 5.208,35.316C6.352,35.76 7.662,36.066 9.578,36.152C11.498,36.24 12.112,36.26 17,36.26C21.888,36.26 22.502,36.24 24.422,36.152C26.338,36.064 27.646,35.76 28.792,35.316C29.976,34.856 30.98,34.24 31.98,33.24C32.98,32.24 33.596,31.236 34.056,30.052C34.5,28.908 34.806,27.598 34.892,25.682C34.98,23.762 35,23.148 35,18.26C35,13.372 34.98,12.758 34.892,10.838C34.804,8.922 34.5,7.614 34.056,6.468C33.596,5.284 32.98,4.28 31.98,3.28C30.98,2.28 29.976,1.664 28.792,1.204C27.648,0.76 26.338,0.454 24.422,0.368C22.502,0.28 21.888,0.26 17,0.26ZM17,9.016C11.896,9.016 7.756,13.154 7.756,18.26C7.756,23.366 11.896,27.504 17,27.504C22.104,27.504 26.244,23.366 26.244,18.26C26.244,13.154 22.104,9.016 17,9.016ZM17,24.26C13.686,24.26 11,21.574 11,18.26C11,14.946 13.686,12.26 17,12.26C20.314,12.26 23,14.946 23,18.26C23,21.574 20.314,24.26 17,24.26ZM26.608,6.492C25.416,6.492 24.448,7.46 24.448,8.652C24.448,9.844 25.416,10.812 26.608,10.812C27.8,10.812 28.768,9.844 28.768,8.652C28.768,7.46 27.802,6.492 26.608,6.492Z" fill="#FFFFFF"/>
</svg>
