<svg width="34" height="34" viewBox="0 0 34 34" fill="none" xmlns="http://www.w3.org/2000/svg" xmlns:xlink="http://www.w3.org/1999/xlink">
<path d="M26.052,23.695L33.191,30.832L30.832,33.19L23.696,26.052C21.04,28.18 17.737,29.338 14.334,29.333C6.054,29.333 -0.666,22.613 -0.666,14.333C-0.666,6.053 6.054,-0.667 14.334,-0.667C22.614,-0.667 29.334,6.053 29.334,14.333C29.339,17.737 28.181,21.039 26.052,23.695ZM22.709,22.458C24.824,20.283 26.005,17.367 26.001,14.333C26.001,7.887 20.779,2.667 14.334,2.667C7.887,2.667 2.667,7.887 2.667,14.333C2.667,20.778 7.887,26 14.334,26C17.368,26.005 20.284,24.823 22.459,22.708L22.709,22.458Z" fill="#000000"/>
</svg>
