<svg width="10" height="10" viewBox="0 0 10 10" fill="none" xmlns="http://www.w3.org/2000/svg" xmlns:xlink="http://www.w3.org/1999/xlink">
<path d="M8.152,4.635C8.152,5.667 7.743,6.656 7.013,7.385C6.284,8.114 5.295,8.524 4.264,8.524C3.753,8.524 3.247,8.424 2.775,8.228C2.303,8.033 1.874,7.747 1.513,7.386C1.152,7.024 0.865,6.596 0.67,6.124C0.474,5.652 0.374,5.146 0.374,4.635C0.374,3.604 0.783,2.615 1.512,1.886C2.242,1.157 3.231,0.747 4.262,0.747C5.293,0.747 6.282,1.157 7.011,1.886C7.741,2.615 8.152,3.604 8.152,4.635Z" fill="#2A6C12"/>
</svg>
