<svg width="40" height="30" viewBox="0 0 40 30" fill="none" xmlns="http://www.w3.org/2000/svg" xmlns:xlink="http://www.w3.org/1999/xlink">
<path d="M38.6,6.261C38.6,6.261 38.21,3.505 37.01,2.291C35.49,0.697 33.784,0.689 33.002,0.597C27.404,0.193 19.008,0.193 19.008,0.193L18.99,0.193C18.99,0.193 10.594,0.193 4.996,0.597C4.216,0.691 2.512,0.699 0.99,2.291C-0.21,3.505 -0.6,6.261 -0.6,6.261C-0.6,6.261 -1,9.499 -1,12.735L-1,15.769C-1,19.005 -0.6,22.243 -0.6,22.243C-0.6,22.243 -0.21,24.999 0.99,26.213C2.512,27.807 4.51,27.755 5.4,27.923C8.6,28.229 19,28.325 19,28.325C19,28.325 27.406,28.313 33.002,27.907C33.784,27.813 35.488,27.805 37.01,26.213C38.21,24.999 38.6,22.243 38.6,22.243C38.6,22.243 39,19.007 39,15.769L39,12.735C39,9.499 38.6,6.261 38.6,6.261ZM14.87,19.447L14.868,8.207L25.676,13.847L14.87,19.447Z" fill="#FFFFFF"/>
</svg>
