<svg width="42" height="32" viewBox="0 0 42 32" fill="none" xmlns="http://www.w3.org/2000/svg" xmlns:xlink="http://www.w3.org/1999/xlink">
<path d="M14.667,18.667L16.667,18.667L14.667,18.667ZM1.333,27.333C0.229,27.333 -0.667,28.229 -0.667,29.333C-0.667,30.438 0.229,31.333 1.333,31.333L1.333,27.333ZM25.333,27.333C24.229,27.333 23.333,28.229 23.333,29.333C23.333,30.438 24.229,31.333 25.333,31.333L25.333,27.333ZM16.667,13.333L16.667,5.333L12.667,5.333L12.667,13.333L16.667,13.333ZM16.667,5.333C16.667,4.079 16.24,2.878 15.347,1.986C14.455,1.093 13.254,0.667 12,0.667L12,4.667C12.345,4.667 12.478,4.773 12.519,4.814C12.56,4.855 12.667,4.988 12.667,5.333L16.667,5.333ZM12,0.667L4,0.667L4,4.667L12,4.667L12,0.667ZM4,0.667C2.762,0.667 1.575,1.158 0.7,2.033L3.529,4.862C3.654,4.737 3.823,4.667 4,4.667L4,0.667ZM0.7,2.033C-0.175,2.909 -0.667,4.095 -0.667,5.333L3.333,5.333C3.333,5.156 3.403,4.987 3.529,4.862L0.7,2.033ZM-0.667,5.333L-0.667,13.333L3.333,13.333L3.333,5.333L-0.667,5.333ZM-0.667,13.333C-0.667,14.588 -0.24,15.788 0.652,16.681C1.545,17.573 2.745,18 4,18L4,14C3.654,14 3.522,13.893 3.481,13.852C3.44,13.811 3.333,13.679 3.333,13.333L-0.667,13.333ZM4,18L12,18L12,14L4,14L4,18ZM12,18C13.254,18 14.455,17.573 15.347,16.681C16.24,15.788 16.667,14.588 16.667,13.333L12.667,13.333C12.667,13.679 12.56,13.811 12.519,13.852C12.478,13.893 12.345,14 12,14L12,18ZM12.667,13.333L12.667,18.667L16.667,18.667L16.667,13.333L12.667,13.333ZM12.667,18.667C12.667,20.965 11.753,23.17 10.128,24.795L12.957,27.623C15.332,25.248 16.667,22.026 16.667,18.667L12.667,18.667ZM10.128,24.795C8.503,26.42 6.298,27.333 4,27.333L4,31.333C7.359,31.333 10.581,29.999 12.957,27.623L10.128,24.795ZM4,27.333L1.333,27.333L1.333,31.333L4,31.333L4,27.333ZM40.667,13.333L40.667,5.333L36.667,5.333L36.667,13.333L40.667,13.333ZM40.667,5.333C40.667,4.079 40.24,2.878 39.347,1.986C38.455,1.093 37.254,0.667 36,0.667L36,4.667C36.345,4.667 36.478,4.773 36.519,4.814C36.56,4.855 36.667,4.988 36.667,5.333L40.667,5.333ZM36,0.667L28,0.667L28,4.667L36,4.667L36,0.667ZM28,0.667C26.762,0.667 25.575,1.158 24.7,2.033L27.528,4.862C27.653,4.737 27.823,4.667 28,4.667L28,0.667ZM24.7,2.033C23.825,2.909 23.333,4.095 23.333,5.333L27.333,5.333C27.333,5.156 27.403,4.987 27.528,4.862L24.7,2.033ZM23.333,5.333L23.333,13.333L27.333,13.333L27.333,5.333L23.333,5.333ZM23.333,13.333C23.333,14.588 23.76,15.788 24.652,16.681C25.545,17.573 26.745,18 28,18L28,14C27.654,14 27.522,13.893 27.481,13.852C27.44,13.811 27.333,13.679 27.333,13.333L23.333,13.333ZM28,18L36,18L36,14L28,14L28,18ZM36,18C37.254,18 38.455,17.573 39.347,16.681C40.24,15.788 40.667,14.588 40.667,13.333L36.667,13.333C36.667,13.679 36.56,13.811 36.519,13.852C36.478,13.893 36.345,14 36,14L36,18ZM36.667,13.333L36.667,18.667L40.667,18.667L40.667,13.333L36.667,13.333ZM36.667,18.667C36.667,20.965 35.753,23.17 34.128,24.795L36.957,27.623C39.332,25.248 40.667,22.026 40.667,18.667L36.667,18.667ZM34.128,24.795C32.503,26.42 30.298,27.333 28,27.333L28,31.333C31.359,31.333 34.581,29.999 36.957,27.623L34.128,24.795ZM28,27.333L25.333,27.333L25.333,31.333L28,31.333L28,27.333Z" fill="#000000"/>
</svg>
