<svg width="8" height="8" viewBox="0 0 8 8" fill="none" xmlns="http://www.w3.org/2000/svg" xmlns:xlink="http://www.w3.org/1999/xlink">
<path d="M7.829,3.384C7.829,3.895 7.728,4.401 7.531,4.872C7.335,5.344 7.046,5.773 6.683,6.134C6.319,6.495 5.888,6.781 5.413,6.977C4.938,7.172 4.429,7.273 3.916,7.273C3.401,7.273 2.892,7.173 2.417,6.977C1.942,6.782 1.511,6.496 1.147,6.135C0.783,5.774 0.495,5.345 0.298,4.873C0.101,4.401 0,3.895 0,3.384C0,2.353 0.412,1.364 1.146,0.635C1.88,-0.094 2.876,-0.504 3.914,-0.504C4.951,-0.504 5.947,-0.094 6.681,0.635C7.415,1.364 7.829,2.353 7.829,3.384Z" fill="#333333"/>
</svg>
