<svg width="8" height="10" viewBox="0 0 8 10" fill="none" xmlns="http://www.w3.org/2000/svg" xmlns:xlink="http://www.w3.org/1999/xlink">
<path d="M7.829,4.131C7.829,5.163 7.417,6.152 6.683,6.881C5.949,7.61 4.953,8.02 3.916,8.02C3.401,8.02 2.892,7.92 2.417,7.724C1.942,7.529 1.511,7.243 1.147,6.882C0.783,6.521 0.495,6.092 0.298,5.62C0.101,5.148 0,4.642 0,4.131C0,3.1 0.412,2.111 1.146,1.382C1.88,0.653 2.876,0.243 3.914,0.243C4.951,0.243 5.947,0.653 6.681,1.382C7.415,2.111 7.829,3.1 7.829,4.131Z" fill="#333333"/>
</svg>
