<svg width="28" height="32" viewBox="0 0 28 32" fill="none" xmlns="http://www.w3.org/2000/svg" xmlns:xlink="http://www.w3.org/1999/xlink">
<path d="M13.4,18.2C12.947,18.2 12.567,18.046 12.261,17.739C11.954,17.433 11.8,17.053 11.8,16.6C11.8,16.147 11.954,15.766 12.261,15.459C12.567,15.153 12.947,15 13.4,15C13.853,15 14.234,15.153 14.541,15.459C14.847,15.766 15,16.147 15,16.6C15,17.053 14.847,17.433 14.541,17.739C14.234,18.046 13.853,18.2 13.4,18.2ZM7,18.2C6.547,18.2 6.166,18.046 5.859,17.739C5.553,17.433 5.4,17.053 5.4,16.6C5.4,16.147 5.553,15.766 5.859,15.459C6.166,15.153 6.547,15 7,15C7.453,15 7.834,15.153 8.141,15.459C8.447,15.766 8.6,16.147 8.6,16.6C8.6,17.053 8.447,17.433 8.141,17.739C7.834,18.046 7.453,18.2 7,18.2ZM19.8,18.2C19.347,18.2 18.967,18.046 18.661,17.739C18.354,17.433 18.2,17.053 18.2,16.6C18.2,16.147 18.354,15.766 18.661,15.459C18.967,15.153 19.347,15 19.8,15C20.253,15 20.633,15.153 20.939,15.459C21.246,15.766 21.4,16.147 21.4,16.6C21.4,17.053 21.246,17.433 20.939,17.739C20.633,18.046 20.253,18.2 19.8,18.2ZM13.4,24.6C12.947,24.6 12.567,24.446 12.261,24.139C11.954,23.833 11.8,23.453 11.8,23C11.8,22.547 11.954,22.167 12.261,21.861C12.567,21.554 12.947,21.4 13.4,21.4C13.853,21.4 14.234,21.554 14.541,21.861C14.847,22.167 15,22.547 15,23C15,23.453 14.847,23.833 14.541,24.139C14.234,24.446 13.853,24.6 13.4,24.6ZM7,24.6C6.547,24.6 6.166,24.446 5.859,24.139C5.553,23.833 5.4,23.453 5.4,23C5.4,22.547 5.553,22.167 5.859,21.861C6.166,21.554 6.547,21.4 7,21.4C7.453,21.4 7.834,21.554 8.141,21.861C8.447,22.167 8.6,22.547 8.6,23C8.6,23.453 8.447,23.833 8.141,24.139C7.834,24.446 7.453,24.6 7,24.6ZM19.8,24.6C19.347,24.6 18.967,24.446 18.661,24.139C18.354,23.833 18.2,23.453 18.2,23C18.2,22.547 18.354,22.167 18.661,21.861C18.967,21.554 19.347,21.4 19.8,21.4C20.253,21.4 20.633,21.554 20.939,21.861C21.246,22.167 21.4,22.547 21.4,23C21.4,23.453 21.246,23.833 20.939,24.139C20.633,24.446 20.253,24.6 19.8,24.6ZM2.2,31C1.32,31 0.566,30.687 -0.061,30.061C-0.687,29.434 -1,28.68 -1,27.8L-1,5.4C-1,4.52 -0.687,3.767 -0.061,3.141C0.566,2.514 1.32,2.2 2.2,2.2L3.8,2.2L3.8,-1L7,-1L7,2.2L19.8,2.2L19.8,-1L23,-1L23,2.2L24.6,2.2C25.48,2.2 26.234,2.514 26.861,3.141C27.487,3.767 27.8,4.52 27.8,5.4L27.8,27.8C27.8,28.68 27.487,29.434 26.861,30.061C26.234,30.687 25.48,31 24.6,31L2.2,31ZM2.2,27.8L24.6,27.8L24.6,11.8L2.2,11.8L2.2,27.8Z" fill="#AAAAAA"/>
</svg>
