<svg width="8" height="10" viewBox="0 0 8 10" fill="none" xmlns="http://www.w3.org/2000/svg" xmlns:xlink="http://www.w3.org/1999/xlink">
<path d="M7.829,4.375C7.829,5.406 7.417,6.395 6.683,7.124C5.949,7.853 4.953,8.263 3.916,8.263C3.401,8.263 2.892,8.163 2.417,7.967C1.942,7.772 1.511,7.486 1.147,7.125C0.783,6.764 0.495,6.335 0.298,5.863C0.101,5.391 0,4.885 0,4.375C0,3.343 0.412,2.354 1.146,1.625C1.88,0.896 2.876,0.486 3.914,0.486C4.951,0.486 5.947,0.896 6.681,1.625C7.415,2.354 7.829,3.343 7.829,4.375Z" fill="#333333"/>
</svg>
