<svg width="30" height="32" viewBox="0 0 30 32" fill="none" xmlns="http://www.w3.org/2000/svg" xmlns:xlink="http://www.w3.org/1999/xlink">
<path d="M14.002,1C22.286,1 29.001,7.716 29.001,16C29.001,24.284 22.286,31 14.002,31C11.251,31 8.673,30.26 6.456,28.967L-0.992,31L1.036,23.547C-0.258,21.33 -0.999,18.752 -0.999,16C-0.999,7.716 5.717,1 14.002,1ZM8.588,8.963C8.394,8.976 8.204,9.024 8.031,9.112C7.901,9.179 7.78,9.275 7.591,9.454C7.412,9.623 7.308,9.77 7.199,9.913C6.644,10.635 6.346,11.521 6.351,12.431C6.354,13.167 6.546,13.883 6.848,14.55C7.46,15.905 8.469,17.336 9.803,18.664C10.123,18.983 10.437,19.305 10.776,19.603C12.431,21.06 14.403,22.111 16.536,22.672C16.536,22.672 17.376,22.801 17.388,22.802C17.667,22.817 17.944,22.797 18.223,22.783C18.66,22.76 19.086,22.642 19.473,22.436C19.721,22.304 19.838,22.238 20.047,22.107C20.047,22.107 20.11,22.064 20.234,21.972C20.436,21.821 20.561,21.715 20.73,21.54C20.854,21.411 20.961,21.259 21.043,21.087C21.161,20.842 21.279,20.375 21.326,19.987C21.361,19.69 21.351,19.528 21.347,19.428C21.34,19.267 21.207,19.101 21.061,19.03L20.189,18.638C20.189,18.638 18.884,18.07 18.087,17.707C18.004,17.669 17.913,17.651 17.821,17.646C17.621,17.633 17.397,17.685 17.254,17.836C17.247,17.833 17.148,17.919 16.062,19.233C16.002,19.305 15.862,19.46 15.62,19.446C15.583,19.443 15.547,19.438 15.511,19.429C15.413,19.403 15.317,19.369 15.224,19.329C15.038,19.25 14.973,19.22 14.846,19.166C13.98,18.787 13.186,18.281 12.483,17.662C12.295,17.496 12.119,17.317 11.939,17.142C11.309,16.531 10.793,15.882 10.409,15.241C10.388,15.206 10.355,15.155 10.321,15.099C10.258,14.997 10.189,14.875 10.167,14.792C10.111,14.571 10.259,14.394 10.259,14.394C10.259,14.394 10.624,13.994 10.794,13.777C10.957,13.568 11.098,13.364 11.187,13.219C11.364,12.934 11.42,12.641 11.327,12.414C10.906,11.388 10.472,10.368 10.025,9.353C9.936,9.153 9.674,9.008 9.435,8.98C9.354,8.971 9.273,8.961 9.192,8.956C8.991,8.946 8.789,8.948 8.588,8.963Z" fill="#000000"/>
</svg>
