<svg width="24" height="30" viewBox="0 0 24 30" fill="none" xmlns="http://www.w3.org/2000/svg" xmlns:xlink="http://www.w3.org/1999/xlink">
<path d="M20.485,21.152L12,29.637L3.515,21.152C-1.172,16.466 -1.172,8.868 3.515,4.181C8.201,-0.505 15.799,-0.505 20.485,4.181C25.172,8.868 25.172,16.466 20.485,21.152ZM12,18C14.945,18 17.333,15.612 17.333,12.667C17.333,9.721 14.945,7.333 12,7.333C9.054,7.333 6.667,9.721 6.667,12.667C6.667,15.612 9.054,18 12,18ZM12,15.333C10.527,15.333 9.333,14.14 9.333,12.667C9.333,11.194 10.527,10 12,10C13.473,10 14.667,11.194 14.667,12.667C14.667,14.14 13.473,15.333 12,15.333Z" fill="#000000"/>
</svg>
