<svg width="36" height="36" viewBox="0 0 36 36" fill="none" xmlns="http://www.w3.org/2000/svg" xmlns:xlink="http://www.w3.org/1999/xlink">
<path d="M17,2.244C21.806,2.244 22.376,2.262 24.274,2.348C26.028,2.428 26.982,2.722 27.616,2.968C28.456,3.294 29.056,3.684 29.686,4.314C30.316,4.944 30.706,5.544 31.032,6.384C31.278,7.018 31.572,7.972 31.652,9.726C31.738,11.624 31.756,12.194 31.756,17C31.756,21.806 31.738,22.376 31.652,24.274C31.572,26.028 31.278,26.982 31.032,27.616C30.706,28.456 30.316,29.056 29.686,29.686C29.056,30.316 28.456,30.706 27.616,31.032C26.982,31.278 26.028,31.572 24.274,31.652C22.376,31.738 21.808,31.756 17,31.756C12.192,31.756 11.624,31.738 9.726,31.652C7.972,31.572 7.018,31.278 6.384,31.032C5.544,30.706 4.944,30.316 4.314,29.686C3.684,29.056 3.294,28.456 2.968,27.616C2.722,26.982 2.428,26.028 2.348,24.274C2.262,22.376 2.244,21.806 2.244,17C2.244,12.194 2.262,11.624 2.348,9.726C2.428,7.972 2.722,7.018 2.968,6.384C3.294,5.544 3.684,4.944 4.314,4.314C4.944,3.684 5.544,3.294 6.384,2.968C7.018,2.722 7.972,2.428 9.726,2.348C11.624,2.262 12.194,2.244 17,2.244ZM17,-1C12.112,-1 11.498,-0.98 9.578,-0.892C7.662,-0.804 6.354,-0.5 5.21,-0.056C4.026,0.404 3.022,1.02 2.022,2.022C1.022,3.022 0.406,4.026 -0.054,5.21C-0.5,6.354 -0.804,7.662 -0.892,9.578C-0.98,11.498 -1,12.112 -1,17C-1,21.888 -0.98,22.502 -0.892,24.422C-0.804,26.338 -0.5,27.646 -0.056,28.792C0.404,29.976 1.02,30.98 2.02,31.98C3.02,32.98 4.024,33.596 5.208,34.056C6.352,34.5 7.662,34.806 9.578,34.892C11.498,34.98 12.112,35 17,35C21.888,35 22.502,34.98 24.422,34.892C26.338,34.804 27.646,34.5 28.792,34.056C29.976,33.596 30.98,32.98 31.98,31.98C32.98,30.98 33.596,29.976 34.056,28.792C34.5,27.648 34.806,26.338 34.892,24.422C34.98,22.502 35,21.888 35,17C35,12.112 34.98,11.498 34.892,9.578C34.804,7.662 34.5,6.354 34.056,5.208C33.596,4.024 32.98,3.02 31.98,2.02C30.98,1.02 29.976,0.404 28.792,-0.056C27.648,-0.5 26.338,-0.806 24.422,-0.892C22.502,-0.98 21.888,-1 17,-1ZM17,7.756C11.896,7.756 7.756,11.894 7.756,17C7.756,22.106 11.896,26.244 17,26.244C22.104,26.244 26.244,22.106 26.244,17C26.244,11.894 22.104,7.756 17,7.756ZM17,23C13.686,23 11,20.314 11,17C11,13.686 13.686,11 17,11C20.314,11 23,13.686 23,17C23,20.314 20.314,23 17,23ZM26.608,5.232C25.416,5.232 24.448,6.2 24.448,7.392C24.448,8.584 25.416,9.552 26.608,9.552C27.8,9.552 28.768,8.584 28.768,7.392C28.768,6.2 27.802,5.232 26.608,5.232Z" fill="#FFFFFF"/>
</svg>
