<svg width="30" height="32" viewBox="0 0 30 32" fill="none" xmlns="http://www.w3.org/2000/svg" xmlns:xlink="http://www.w3.org/1999/xlink">
<path d="M14.4,18.2C13.947,18.2 13.567,18.046 13.261,17.739C12.954,17.433 12.8,17.053 12.8,16.6C12.8,16.147 12.954,15.766 13.261,15.459C13.567,15.153 13.947,15 14.4,15C14.853,15 15.234,15.153 15.541,15.459C15.847,15.766 16,16.147 16,16.6C16,17.053 15.847,17.433 15.541,17.739C15.234,18.046 14.853,18.2 14.4,18.2ZM8,18.2C7.547,18.2 7.166,18.046 6.859,17.739C6.553,17.433 6.4,17.053 6.4,16.6C6.4,16.147 6.553,15.766 6.859,15.459C7.166,15.153 7.547,15 8,15C8.453,15 8.834,15.153 9.141,15.459C9.447,15.766 9.6,16.147 9.6,16.6C9.6,17.053 9.447,17.433 9.141,17.739C8.834,18.046 8.453,18.2 8,18.2ZM20.8,18.2C20.347,18.2 19.967,18.046 19.661,17.739C19.354,17.433 19.2,17.053 19.2,16.6C19.2,16.147 19.354,15.766 19.661,15.459C19.967,15.153 20.347,15 20.8,15C21.253,15 21.633,15.153 21.939,15.459C22.246,15.766 22.4,16.147 22.4,16.6C22.4,17.053 22.246,17.433 21.939,17.739C21.633,18.046 21.253,18.2 20.8,18.2ZM14.4,24.6C13.947,24.6 13.567,24.446 13.261,24.139C12.954,23.833 12.8,23.453 12.8,23C12.8,22.547 12.954,22.167 13.261,21.861C13.567,21.554 13.947,21.4 14.4,21.4C14.853,21.4 15.234,21.554 15.541,21.861C15.847,22.167 16,22.547 16,23C16,23.453 15.847,23.833 15.541,24.139C15.234,24.446 14.853,24.6 14.4,24.6ZM8,24.6C7.547,24.6 7.166,24.446 6.859,24.139C6.553,23.833 6.4,23.453 6.4,23C6.4,22.547 6.553,22.167 6.859,21.861C7.166,21.554 7.547,21.4 8,21.4C8.453,21.4 8.834,21.554 9.141,21.861C9.447,22.167 9.6,22.547 9.6,23C9.6,23.453 9.447,23.833 9.141,24.139C8.834,24.446 8.453,24.6 8,24.6ZM20.8,24.6C20.347,24.6 19.967,24.446 19.661,24.139C19.354,23.833 19.2,23.453 19.2,23C19.2,22.547 19.354,22.167 19.661,21.861C19.967,21.554 20.347,21.4 20.8,21.4C21.253,21.4 21.633,21.554 21.939,21.861C22.246,22.167 22.4,22.547 22.4,23C22.4,23.453 22.246,23.833 21.939,24.139C21.633,24.446 21.253,24.6 20.8,24.6ZM3.2,31C2.32,31 1.566,30.687 0.939,30.061C0.313,29.434 0,28.68 0,27.8L0,5.4C0,4.52 0.313,3.767 0.939,3.141C1.566,2.514 2.32,2.2 3.2,2.2L4.8,2.2L4.8,-1L8,-1L8,2.2L20.8,2.2L20.8,-1L24,-1L24,2.2L25.6,2.2C26.48,2.2 27.234,2.514 27.861,3.141C28.487,3.767 28.8,4.52 28.8,5.4L28.8,27.8C28.8,28.68 28.487,29.434 27.861,30.061C27.234,30.687 26.48,31 25.6,31L3.2,31ZM3.2,27.8L25.6,27.8L25.6,11.8L3.2,11.8L3.2,27.8Z" fill="#AAAAAA"/>
</svg>
