<svg width="24" height="30" viewBox="0 0 24 30" fill="none" xmlns="http://www.w3.org/2000/svg" xmlns:xlink="http://www.w3.org/1999/xlink">
<path d="M20.485,21.001L12,29.486L3.515,21.001C-1.172,16.315 -1.172,8.717 3.515,4.03C8.201,-0.656 15.799,-0.656 20.485,4.03C25.172,8.717 25.172,16.315 20.485,21.001ZM12,17.849C14.945,17.849 17.333,15.461 17.333,12.516C17.333,9.57 14.945,7.182 12,7.182C9.054,7.182 6.667,9.57 6.667,12.516C6.667,15.461 9.054,17.849 12,17.849ZM12,15.182C10.527,15.182 9.333,13.988 9.333,12.516C9.333,11.043 10.527,9.849 12,9.849C13.473,9.849 14.667,11.043 14.667,12.516C14.667,13.988 13.473,15.182 12,15.182Z" fill="#FFFFFF"/>
</svg>
