<svg width="28" height="22" viewBox="0 0 28 22" fill="none" xmlns="http://www.w3.org/2000/svg" xmlns:xlink="http://www.w3.org/1999/xlink">
<path d="M14.325,-0.667C15.037,-0.663 16.818,-0.646 18.711,-0.57L19.383,-0.541C21.289,-0.45 23.193,-0.296 24.138,-0.033C25.397,0.321 26.388,1.354 26.722,2.663C27.255,4.742 27.322,8.799 27.33,9.781L27.331,9.984L27.331,9.999C27.331,9.999 27.331,10.004 27.331,10.013L27.33,10.217C27.322,11.198 27.255,15.256 26.722,17.335C26.383,18.648 25.393,19.681 24.138,20.03C23.193,20.294 21.289,20.448 19.383,20.538L18.711,20.567C16.818,20.643 15.037,20.66 14.325,20.664L14.012,20.665L13.998,20.665C13.998,20.665 13.993,20.665 13.984,20.665L13.672,20.664C12.165,20.656 5.863,20.588 3.859,20.03C2.599,19.676 1.609,18.644 1.274,17.335C0.741,15.256 0.674,11.198 0.666,10.217L0.666,9.781C0.674,8.799 0.741,4.742 1.274,2.663C1.613,1.349 2.603,0.316 3.859,-0.033C5.863,-0.59 12.165,-0.658 13.672,-0.667L14.325,-0.667ZM11.331,5.332L11.331,14.665L19.331,9.999L11.331,5.332Z" fill="#000000"/>
</svg>
