<svg width="44" height="32" viewBox="0 0 44 32" fill="none" xmlns="http://www.w3.org/2000/svg" xmlns:xlink="http://www.w3.org/1999/xlink">
<path d="M16.667,17.867L19.333,17.867L16.667,17.867ZM3.333,25.867C1.861,25.867 0.667,27.061 0.667,28.533C0.667,30.006 1.861,31.2 3.333,31.2L3.333,25.867ZM27.333,25.867C25.861,25.867 24.667,27.061 24.667,28.533C24.667,30.006 25.861,31.2 27.333,31.2L27.333,25.867ZM19.333,12.533L19.333,4.533L14,4.533L14,12.533L19.333,12.533ZM19.333,4.533C19.333,3.127 18.853,1.748 17.819,0.714C16.785,-0.32 15.406,-0.8 14,-0.8L14,4.533C14.103,4.533 14.142,4.55 14.134,4.547C14.131,4.546 14.119,4.541 14.102,4.53C14.085,4.519 14.066,4.504 14.048,4.486C14.029,4.467 14.014,4.448 14.003,4.431C13.992,4.414 13.987,4.402 13.986,4.399C13.983,4.391 14,4.43 14,4.533L19.333,4.533ZM14,-0.8L6,-0.8L6,4.533L14,4.533L14,-0.8ZM6,-0.8C4.585,-0.8 3.229,-0.238 2.229,0.762L6,4.533L6,4.533L6,-0.8ZM2.229,0.762C1.229,1.762 0.667,3.119 0.667,4.533L6,4.533L6,4.533L2.229,0.762ZM0.667,4.533L0.667,12.533L6,12.533L6,4.533L0.667,4.533ZM0.667,12.533C0.667,13.939 1.147,15.318 2.181,16.352C3.215,17.386 4.594,17.867 6,17.867L6,12.533C5.897,12.533 5.858,12.516 5.866,12.519C5.869,12.521 5.881,12.526 5.898,12.537C5.915,12.548 5.934,12.563 5.952,12.581C5.971,12.6 5.986,12.619 5.997,12.636C6.008,12.653 6.013,12.664 6.014,12.668C6.017,12.675 6,12.637 6,12.533L0.667,12.533ZM6,17.867L14,17.867L14,12.533L6,12.533L6,17.867ZM14,17.867C15.406,17.867 16.785,17.386 17.819,16.352C18.853,15.318 19.333,13.939 19.333,12.533L14,12.533C14,12.637 13.983,12.675 13.986,12.668C13.987,12.664 13.992,12.653 14.003,12.636C14.014,12.619 14.029,12.6 14.048,12.581C14.066,12.563 14.085,12.548 14.102,12.537C14.119,12.526 14.131,12.521 14.134,12.519C14.142,12.516 14.103,12.533 14,12.533L14,17.867ZM14,12.533L14,17.867L19.333,17.867L19.333,12.533L14,12.533ZM14,17.867C14,19.988 13.157,22.023 11.657,23.523L15.428,27.295C17.929,24.794 19.333,21.403 19.333,17.867L14,17.867ZM11.657,23.523C10.157,25.024 8.122,25.867 6,25.867L6,31.2C9.536,31.2 12.928,29.795 15.428,27.295L11.657,23.523ZM6,25.867L3.333,25.867L3.333,31.2L6,31.2L6,25.867ZM43.333,12.533L43.333,4.533L38,4.533L38,12.533L43.333,12.533ZM43.333,4.533C43.333,3.127 42.853,1.748 41.819,0.714C40.785,-0.32 39.406,-0.8 38,-0.8L38,4.533C38.103,4.533 38.142,4.55 38.134,4.547C38.131,4.546 38.119,4.541 38.102,4.53C38.085,4.519 38.066,4.504 38.048,4.486C38.029,4.467 38.014,4.448 38.003,4.431C37.992,4.414 37.987,4.402 37.986,4.399C37.983,4.391 38,4.43 38,4.533L43.333,4.533ZM38,-0.8L30,-0.8L30,4.533L38,4.533L38,-0.8ZM30,-0.8C28.586,-0.8 27.229,-0.238 26.229,0.762L30,4.533L30,4.533L30,-0.8ZM26.229,0.762C25.229,1.762 24.667,3.119 24.667,4.533L30,4.533L30,4.533L26.229,0.762ZM24.667,4.533L24.667,12.533L30,12.533L30,4.533L24.667,4.533ZM24.667,12.533C24.667,13.939 25.147,15.318 26.181,16.352C27.215,17.386 28.594,17.867 30,17.867L30,12.533C29.897,12.533 29.858,12.516 29.866,12.519C29.869,12.521 29.881,12.526 29.898,12.537C29.915,12.548 29.934,12.563 29.952,12.581C29.971,12.6 29.986,12.619 29.997,12.636C30.008,12.653 30.013,12.664 30.014,12.668C30.017,12.675 30,12.637 30,12.533L24.667,12.533ZM30,17.867L38,17.867L38,12.533L30,12.533L30,17.867ZM38,17.867C39.406,17.867 40.785,17.386 41.819,16.352C42.853,15.318 43.333,13.939 43.333,12.533L38,12.533C38,12.637 37.983,12.675 37.986,12.668C37.987,12.664 37.992,12.653 38.003,12.636C38.014,12.619 38.029,12.6 38.048,12.581C38.066,12.563 38.085,12.548 38.102,12.537C38.119,12.526 38.131,12.521 38.134,12.519C38.142,12.516 38.103,12.533 38,12.533L38,17.867ZM38,12.533L38,17.867L43.333,17.867L43.333,12.533L38,12.533ZM38,17.867C38,19.988 37.157,22.023 35.657,23.523L39.428,27.295C41.929,24.794 43.333,21.403 43.333,17.867L38,17.867ZM35.657,23.523C34.157,25.024 32.122,25.867 30,25.867L30,31.2C33.536,31.2 36.928,29.795 39.428,27.295L35.657,23.523ZM30,25.867L27.333,25.867L27.333,31.2L30,31.2L30,25.867Z" fill="#2A6C12"/>
</svg>
