<svg width="34" height="34" viewBox="0 0 34 34" fill="none" xmlns="http://www.w3.org/2000/svg" xmlns:xlink="http://www.w3.org/1999/xlink">
<path d="M26.052,23.695L33.19,30.832L30.832,33.19L23.695,26.052C21.04,28.18 17.737,29.338 14.333,29.333C6.053,29.333 -0.667,22.613 -0.667,14.333C-0.667,6.053 6.053,-0.667 14.333,-0.667C22.613,-0.667 29.333,6.053 29.333,14.333C29.338,17.737 28.18,21.039 26.052,23.695ZM22.708,22.458C24.824,20.283 26.005,17.367 26,14.333C26,7.887 20.778,2.667 14.333,2.667C7.887,2.667 2.667,7.887 2.667,14.333C2.667,20.778 7.887,26 14.333,26C17.368,26.005 20.283,24.823 22.458,22.708L22.708,22.458Z" fill="#000000"/>
</svg>
