<svg width="40" height="30" viewBox="0 0 40 30" fill="none" xmlns="http://www.w3.org/2000/svg" xmlns:xlink="http://www.w3.org/1999/xlink">
<path d="M38.6,6.342C38.6,6.342 38.21,3.586 37.01,2.372C35.49,0.778 33.784,0.77 33.002,0.678C27.404,0.274 19.008,0.274 19.008,0.274L18.99,0.274C18.99,0.274 10.594,0.274 4.996,0.678C4.216,0.772 2.512,0.78 0.99,2.372C-0.21,3.586 -0.6,6.342 -0.6,6.342C-0.6,6.342 -1,9.58 -1,12.816L-1,15.85C-1,19.086 -0.6,22.324 -0.6,22.324C-0.6,22.324 -0.21,25.08 0.99,26.294C2.512,27.888 4.51,27.836 5.4,28.004C8.6,28.31 19,28.406 19,28.406C19,28.406 27.406,28.394 33.002,27.988C33.784,27.894 35.488,27.886 37.01,26.294C38.21,25.08 38.6,22.324 38.6,22.324C38.6,22.324 39,19.088 39,15.85L39,12.816C39,9.58 38.6,6.342 38.6,6.342ZM14.87,19.528L14.868,8.288L25.676,13.928L14.87,19.528Z" fill="#FFFFFF"/>
</svg>
