<svg width="10" height="10" viewBox="0 0 10 10" fill="none" xmlns="http://www.w3.org/2000/svg" xmlns:xlink="http://www.w3.org/1999/xlink">
<path d="M8.152,4.879C8.152,5.91 7.743,6.899 7.013,7.628C6.284,8.357 5.295,8.767 4.264,8.767C3.753,8.767 3.247,8.667 2.775,8.471C2.303,8.276 1.874,7.99 1.513,7.629C1.152,7.268 0.865,6.839 0.67,6.367C0.474,5.895 0.374,5.389 0.374,4.879C0.374,3.847 0.783,2.858 1.512,2.129C2.242,1.4 3.231,0.99 4.262,0.99C5.293,0.99 6.282,1.4 7.011,2.129C7.741,2.858 8.152,3.847 8.152,4.879Z" fill="#2A6C12"/>
</svg>
