<svg width="8" height="8" viewBox="0 0 8 8" fill="none" xmlns="http://www.w3.org/2000/svg" xmlns:xlink="http://www.w3.org/1999/xlink">
<path d="M7.829,4.112C7.829,5.143 7.417,6.132 6.683,6.861C5.949,7.59 4.953,8 3.916,8C3.401,8 2.892,7.9 2.417,7.705C1.942,7.509 1.511,7.223 1.147,6.862C0.783,6.501 0.495,6.072 0.298,5.6C0.101,5.128 0,4.622 0,4.112C0,3.08 0.412,2.091 1.146,1.362C1.88,0.633 2.876,0.223 3.914,0.223C4.951,0.223 5.947,0.633 6.681,1.362C7.415,2.091 7.829,3.08 7.829,4.112Z" fill="#333333"/>
</svg>
