<svg width="24" height="30" viewBox="0 0 24 30" fill="none" xmlns="http://www.w3.org/2000/svg" xmlns:xlink="http://www.w3.org/1999/xlink">
<path d="M20.485,21L12,29.485L3.515,21C-1.172,16.314 -1.172,8.716 3.515,4.029C8.201,-0.657 15.799,-0.657 20.485,4.029C25.172,8.716 25.172,16.314 20.485,21ZM12,17.848C14.945,17.848 17.333,15.46 17.333,12.515C17.333,9.569 14.945,7.181 12,7.181C9.054,7.181 6.667,9.569 6.667,12.515C6.667,15.46 9.054,17.848 12,17.848ZM12,15.181C10.527,15.181 9.333,13.988 9.333,12.515C9.333,11.042 10.527,9.848 12,9.848C13.473,9.848 14.667,11.042 14.667,12.515C14.667,13.988 13.473,15.181 12,15.181Z" fill="#FFFFFF"/>
</svg>
