<svg width="36" height="36" viewBox="0 0 36 36" fill="none" xmlns="http://www.w3.org/2000/svg" xmlns:xlink="http://www.w3.org/1999/xlink">
<path d="M18,3.244C22.806,3.244 23.376,3.262 25.274,3.348C27.028,3.428 27.982,3.722 28.616,3.968C29.456,4.294 30.056,4.684 30.686,5.314C31.316,5.944 31.706,6.544 32.032,7.384C32.278,8.018 32.572,8.972 32.652,10.726C32.738,12.624 32.756,13.194 32.756,18C32.756,22.806 32.738,23.376 32.652,25.274C32.572,27.028 32.278,27.982 32.032,28.616C31.706,29.456 31.316,30.056 30.686,30.686C30.056,31.316 29.456,31.706 28.616,32.032C27.982,32.278 27.028,32.572 25.274,32.652C23.376,32.738 22.808,32.756 18,32.756C13.192,32.756 12.624,32.738 10.726,32.652C8.972,32.572 8.018,32.278 7.384,32.032C6.544,31.706 5.944,31.316 5.314,30.686C4.684,30.056 4.294,29.456 3.968,28.616C3.722,27.982 3.428,27.028 3.348,25.274C3.262,23.376 3.244,22.806 3.244,18C3.244,13.194 3.262,12.624 3.348,10.726C3.428,8.972 3.722,8.018 3.968,7.384C4.294,6.544 4.684,5.944 5.314,5.314C5.944,4.684 6.544,4.294 7.384,3.968C8.018,3.722 8.972,3.428 10.726,3.348C12.624,3.262 13.194,3.244 18,3.244ZM18,0C13.112,0 12.498,0.02 10.578,0.108C8.662,0.196 7.354,0.5 6.21,0.944C5.026,1.404 4.022,2.02 3.022,3.022C2.022,4.022 1.406,5.026 0.946,6.21C0.5,7.354 0.196,8.662 0.108,10.578C0.02,12.498 0,13.112 0,18C0,22.888 0.02,23.502 0.108,25.422C0.196,27.338 0.5,28.646 0.944,29.792C1.404,30.976 2.02,31.98 3.02,32.98C4.02,33.98 5.024,34.596 6.208,35.056C7.352,35.5 8.662,35.806 10.578,35.892C12.498,35.98 13.112,36 18,36C22.888,36 23.502,35.98 25.422,35.892C27.338,35.804 28.646,35.5 29.792,35.056C30.976,34.596 31.98,33.98 32.98,32.98C33.98,31.98 34.596,30.976 35.056,29.792C35.5,28.648 35.806,27.338 35.892,25.422C35.98,23.502 36,22.888 36,18C36,13.112 35.98,12.498 35.892,10.578C35.804,8.662 35.5,7.354 35.056,6.208C34.596,5.024 33.98,4.02 32.98,3.02C31.98,2.02 30.976,1.404 29.792,0.944C28.648,0.5 27.338,0.194 25.422,0.108C23.502,0.02 22.888,0 18,0ZM18,8.756C12.896,8.756 8.756,12.894 8.756,18C8.756,23.106 12.896,27.244 18,27.244C23.104,27.244 27.244,23.106 27.244,18C27.244,12.894 23.104,8.756 18,8.756ZM18,24C14.686,24 12,21.314 12,18C12,14.686 14.686,12 18,12C21.314,12 24,14.686 24,18C24,21.314 21.314,24 18,24ZM27.608,6.232C26.416,6.232 25.448,7.2 25.448,8.392C25.448,9.584 26.416,10.552 27.608,10.552C28.8,10.552 29.768,9.584 29.768,8.392C29.768,7.2 28.802,6.232 27.608,6.232Z" fill="#000000"/>
</svg>
