<svg width="32" height="32" viewBox="0 0 32 32" fill="none" xmlns="http://www.w3.org/2000/svg" xmlns:xlink="http://www.w3.org/1999/xlink">
<path d="M15.002,0.18C23.286,0.18 30.002,6.896 30.002,15.18C30.002,23.464 23.286,30.18 15.002,30.18C12.251,30.18 9.673,29.44 7.457,28.147L0.008,30.18L2.036,22.727C0.743,20.51 0.002,17.932 0.002,15.18C0.002,6.896 6.718,0.18 15.002,0.18ZM9.589,8.142C9.395,8.156 9.205,8.203 9.031,8.292C8.901,8.359 8.781,8.455 8.591,8.634C8.412,8.803 8.308,8.95 8.199,9.093C7.644,9.815 7.346,10.701 7.352,11.611C7.355,12.347 7.546,13.063 7.848,13.73C8.46,15.085 9.47,16.516 10.803,17.844C11.124,18.163 11.438,18.485 11.776,18.783C13.431,20.24 15.404,21.291 17.537,21.852C17.537,21.852 18.377,21.981 18.389,21.982C18.667,21.997 18.945,21.977 19.223,21.963C19.66,21.94 20.087,21.822 20.473,21.616C20.721,21.484 20.839,21.418 21.047,21.287C21.047,21.287 21.111,21.244 21.234,21.152C21.437,21.001 21.562,20.895 21.73,20.72C21.855,20.591 21.961,20.439 22.044,20.267C22.161,20.022 22.279,19.555 22.326,19.167C22.362,18.87 22.351,18.708 22.347,18.608C22.341,18.447 22.208,18.281 22.061,18.21L21.189,17.818C21.189,17.818 19.885,17.25 19.087,16.886C19.004,16.849 18.913,16.831 18.822,16.825C18.622,16.813 18.398,16.865 18.255,17.016C18.247,17.013 18.148,17.098 17.063,18.413C17.003,18.485 16.863,18.64 16.62,18.626C16.584,18.623 16.547,18.618 16.512,18.609C16.413,18.583 16.318,18.548 16.224,18.509C16.038,18.43 15.973,18.4 15.847,18.346C14.981,17.967 14.186,17.461 13.484,16.842C13.295,16.676 13.12,16.497 12.939,16.322C12.309,15.711 11.793,15.062 11.409,14.421C11.388,14.386 11.356,14.335 11.321,14.279C11.258,14.176 11.189,14.055 11.167,13.972C11.112,13.751 11.259,13.574 11.259,13.574C11.259,13.574 11.625,13.174 11.794,12.957C11.957,12.748 12.098,12.544 12.188,12.398C12.365,12.114 12.421,11.821 12.328,11.594C11.907,10.568 11.473,9.548 11.025,8.533C10.937,8.333 10.674,8.188 10.435,8.16C10.354,8.151 10.274,8.141 10.192,8.136C9.991,8.126 9.79,8.128 9.589,8.142Z" fill="#FFFFFF"/>
</svg>
