<svg width="10" height="8" viewBox="0 0 10 8" fill="none" xmlns="http://www.w3.org/2000/svg" xmlns:xlink="http://www.w3.org/1999/xlink">
<path d="M8.152,3.384C8.152,3.895 8.052,4.401 7.856,4.872C7.661,5.344 7.374,5.773 7.013,6.134C6.652,6.495 6.224,6.781 5.752,6.977C5.28,7.172 4.774,7.273 4.264,7.273C3.753,7.273 3.247,7.173 2.775,6.977C2.303,6.782 1.874,6.496 1.513,6.135C1.152,5.774 0.865,5.345 0.67,4.873C0.474,4.401 0.374,3.895 0.374,3.384C0.374,2.353 0.783,1.364 1.512,0.635C2.242,-0.094 3.231,-0.504 4.262,-0.504C5.293,-0.504 6.282,-0.094 7.011,0.635C7.741,1.364 8.152,2.353 8.152,3.384Z" fill="#2A6C12"/>
</svg>
