<svg width="8" height="8" viewBox="0 0 8 8" fill="none" xmlns="http://www.w3.org/2000/svg" xmlns:xlink="http://www.w3.org/1999/xlink">
<path d="M7.829,3.121C7.829,4.153 7.417,5.142 6.683,5.871C5.949,6.6 4.953,7.01 3.916,7.01C3.401,7.01 2.892,6.91 2.417,6.714C1.942,6.519 1.511,6.233 1.147,5.872C0.783,5.511 0.495,5.082 0.298,4.61C0.101,4.138 0,3.632 0,3.121C0,2.09 0.412,1.101 1.146,0.372C1.88,-0.357 2.876,-0.767 3.914,-0.767C4.951,-0.767 5.947,-0.357 6.681,0.372C7.415,1.101 7.829,2.09 7.829,3.121Z" fill="#333333"/>
</svg>
