<svg width="10" height="8" viewBox="0 0 10 8" fill="none" xmlns="http://www.w3.org/2000/svg" xmlns:xlink="http://www.w3.org/1999/xlink">
<path d="M8.152,4.112C8.152,5.143 7.743,6.132 7.013,6.861C6.284,7.591 5.295,8 4.264,8C3.753,8.001 3.247,7.9 2.775,7.705C2.303,7.51 1.874,7.223 1.513,6.862C1.152,6.501 0.865,6.072 0.67,5.6C0.474,5.129 0.374,4.623 0.374,4.112C0.374,3.081 0.783,2.092 1.512,1.362C2.242,0.633 3.231,0.224 4.262,0.224C5.293,0.224 6.282,0.633 7.011,1.362C7.741,2.092 8.152,3.081 8.152,4.112Z" fill="#2A6C12"/>
</svg>
